<svg version="1.1" xmlns="http://www.w3.org/2000/svg" xmlns:xlink="http://www.w3.org/1999/xlink" width="966.96697" height="431.6784" viewBox="0,0,966.96697,431.6784"><defs><linearGradient x1="317.97512" y1="270.22911" x2="317.97512" y2="369.32822" gradientUnits="userSpaceOnUse" id="color-1"><stop offset="0" stop-color="#000000" stop-opacity="0"/><stop offset="1" stop-color="#000000"/></linearGradient><radialGradient cx="60.13138" cy="267.47912" r="24.875" gradientUnits="userSpaceOnUse" id="color-2"><stop offset="0" stop-color="#000000"/><stop offset="1" stop-color="#000000" stop-opacity="0"/></radialGradient><radialGradient cx="64.88138" cy="267.47912" r="24.875" gradientUnits="userSpaceOnUse" id="color-3"><stop offset="0" stop-color="#000000"/><stop offset="1" stop-color="#000000" stop-opacity="0"/></radialGradient><radialGradient cx="64.88138" cy="272.97911" r="24.875" gradientUnits="userSpaceOnUse" id="color-4"><stop offset="0" stop-color="#000000"/><stop offset="1" stop-color="#000000" stop-opacity="0"/></radialGradient><radialGradient cx="60.13138" cy="272.97911" r="24.875" gradientUnits="userSpaceOnUse" id="color-5"><stop offset="0" stop-color="#000000"/><stop offset="1" stop-color="#000000" stop-opacity="0"/></radialGradient><radialGradient cx="37.38138" cy="159.8665" r="24.875" gradientUnits="userSpaceOnUse" id="color-6"><stop offset="0" stop-color="#000000"/><stop offset="1" stop-color="#000000" stop-opacity="0"/></radialGradient><radialGradient cx="42.13138" cy="159.8665" r="24.875" gradientUnits="userSpaceOnUse" id="color-7"><stop offset="0" stop-color="#000000"/><stop offset="1" stop-color="#000000" stop-opacity="0"/></radialGradient><radialGradient cx="42.13138" cy="165.3665" r="24.875" gradientUnits="userSpaceOnUse" id="color-8"><stop offset="0" stop-color="#000000"/><stop offset="1" stop-color="#000000" stop-opacity="0"/></radialGradient><radialGradient cx="37.38138" cy="165.3665" r="24.875" gradientUnits="userSpaceOnUse" id="color-9"><stop offset="0" stop-color="#000000"/><stop offset="1" stop-color="#000000" stop-opacity="0"/></radialGradient><radialGradient cx="82.88138" cy="79.28091" r="24.875" gradientUnits="userSpaceOnUse" id="color-10"><stop offset="0" stop-color="#000000"/><stop offset="1" stop-color="#000000" stop-opacity="0"/></radialGradient><radialGradient cx="87.63138" cy="79.28091" r="24.875" gradientUnits="userSpaceOnUse" id="color-11"><stop offset="0" stop-color="#000000"/><stop offset="1" stop-color="#000000" stop-opacity="0"/></radialGradient><radialGradient cx="87.63138" cy="84.78091" r="24.875" gradientUnits="userSpaceOnUse" id="color-12"><stop offset="0" stop-color="#000000"/><stop offset="1" stop-color="#000000" stop-opacity="0"/></radialGradient><radialGradient cx="82.88138" cy="84.78091" r="24.875" gradientUnits="userSpaceOnUse" id="color-13"><stop offset="0" stop-color="#000000"/><stop offset="1" stop-color="#000000" stop-opacity="0"/></radialGradient><radialGradient cx="158.45195" cy="-2.75" r="24.875" gradientUnits="userSpaceOnUse" id="color-14"><stop offset="0" stop-color="#000000"/><stop offset="1" stop-color="#000000" stop-opacity="0"/></radialGradient><radialGradient cx="163.20195" cy="-2.75" r="24.875" gradientUnits="userSpaceOnUse" id="color-15"><stop offset="0" stop-color="#000000"/><stop offset="1" stop-color="#000000" stop-opacity="0"/></radialGradient><radialGradient cx="163.20195" cy="2.75" r="24.875" gradientUnits="userSpaceOnUse" id="color-16"><stop offset="0" stop-color="#000000"/><stop offset="1" stop-color="#000000" stop-opacity="0"/></radialGradient><radialGradient cx="158.45195" cy="2.75" r="24.875" gradientUnits="userSpaceOnUse" id="color-17"><stop offset="0" stop-color="#000000"/><stop offset="1" stop-color="#000000" stop-opacity="0"/></radialGradient><radialGradient cx="507.29579" cy="57.15591" r="24.875" gradientUnits="userSpaceOnUse" id="color-18"><stop offset="0" stop-color="#000000"/><stop offset="1" stop-color="#000000" stop-opacity="0"/></radialGradient><radialGradient cx="512.04579" cy="57.15591" r="24.875" gradientUnits="userSpaceOnUse" id="color-19"><stop offset="0" stop-color="#000000"/><stop offset="1" stop-color="#000000" stop-opacity="0"/></radialGradient><radialGradient cx="512.04579" cy="62.65591" r="24.875" gradientUnits="userSpaceOnUse" id="color-20"><stop offset="0" stop-color="#000000"/><stop offset="1" stop-color="#000000" stop-opacity="0"/></radialGradient><radialGradient cx="507.29579" cy="62.65591" r="24.875" gradientUnits="userSpaceOnUse" id="color-21"><stop offset="0" stop-color="#000000"/><stop offset="1" stop-color="#000000" stop-opacity="0"/></radialGradient><radialGradient cx="585.86936" cy="198.79255" r="24.875" gradientUnits="userSpaceOnUse" id="color-22"><stop offset="0" stop-color="#000000"/><stop offset="1" stop-color="#000000" stop-opacity="0"/></radialGradient><radialGradient cx="590.61936" cy="198.79255" r="24.875" gradientUnits="userSpaceOnUse" id="color-23"><stop offset="0" stop-color="#000000"/><stop offset="1" stop-color="#000000" stop-opacity="0"/></radialGradient><radialGradient cx="590.61936" cy="204.29255" r="24.875" gradientUnits="userSpaceOnUse" id="color-24"><stop offset="0" stop-color="#000000"/><stop offset="1" stop-color="#000000" stop-opacity="0"/></radialGradient><radialGradient cx="585.86936" cy="204.29255" r="24.875" gradientUnits="userSpaceOnUse" id="color-25"><stop offset="0" stop-color="#000000"/><stop offset="1" stop-color="#000000" stop-opacity="0"/></radialGradient><radialGradient cx="133.1561" cy="189.66424" r="51.53946" gradientUnits="userSpaceOnUse" id="color-26"><stop offset="0" stop-color="#000000"/><stop offset="1" stop-color="#000000" stop-opacity="0"/></radialGradient><radialGradient cx="142.9978" cy="189.66424" r="51.53946" gradientUnits="userSpaceOnUse" id="color-27"><stop offset="0" stop-color="#000000"/><stop offset="1" stop-color="#000000" stop-opacity="0"/></radialGradient><radialGradient cx="142.9978" cy="201.0599" r="51.53946" gradientUnits="userSpaceOnUse" id="color-28"><stop offset="0" stop-color="#000000"/><stop offset="1" stop-color="#000000" stop-opacity="0"/></radialGradient><radialGradient cx="133.1561" cy="201.0599" r="51.53946" gradientUnits="userSpaceOnUse" id="color-29"><stop offset="0" stop-color="#000000"/><stop offset="1" stop-color="#000000" stop-opacity="0"/></radialGradient><radialGradient cx="32.71052" cy="29.33308" r="51.53946" gradientUnits="userSpaceOnUse" id="color-30"><stop offset="0" stop-color="#000000"/><stop offset="1" stop-color="#000000" stop-opacity="0"/></radialGradient><radialGradient cx="42.55223" cy="29.33308" r="51.53946" gradientUnits="userSpaceOnUse" id="color-31"><stop offset="0" stop-color="#000000"/><stop offset="1" stop-color="#000000" stop-opacity="0"/></radialGradient><radialGradient cx="42.55223" cy="40.72874" r="51.53946" gradientUnits="userSpaceOnUse" id="color-32"><stop offset="0" stop-color="#000000"/><stop offset="1" stop-color="#000000" stop-opacity="0"/></radialGradient><radialGradient cx="32.71052" cy="40.72874" r="51.53946" gradientUnits="userSpaceOnUse" id="color-33"><stop offset="0" stop-color="#000000"/><stop offset="1" stop-color="#000000" stop-opacity="0"/></radialGradient><radialGradient cx="604.87546" cy="59.65762" r="64.08744" gradientUnits="userSpaceOnUse" id="color-34"><stop offset="0" stop-color="#000000"/><stop offset="1" stop-color="#000000" stop-opacity="0"/></radialGradient><radialGradient cx="617.11327" cy="59.65762" r="64.08744" gradientUnits="userSpaceOnUse" id="color-35"><stop offset="0" stop-color="#000000"/><stop offset="1" stop-color="#000000" stop-opacity="0"/></radialGradient><radialGradient cx="617.11327" cy="73.82771" r="64.08744" gradientUnits="userSpaceOnUse" id="color-36"><stop offset="0" stop-color="#000000"/><stop offset="1" stop-color="#000000" stop-opacity="0"/></radialGradient><radialGradient cx="604.87546" cy="73.82771" r="64.08744" gradientUnits="userSpaceOnUse" id="color-37"><stop offset="0" stop-color="#000000"/><stop offset="1" stop-color="#000000" stop-opacity="0"/></radialGradient></defs><g transform="translate(165.50837,62.35018)"><g data-paper-data="{&quot;isPaintingLayer&quot;:true}" fill-rule="nonzero" stroke="none" stroke-width="0" stroke-linecap="butt" stroke-linejoin="miter" stroke-miterlimit="10" stroke-dasharray="" stroke-dashoffset="0" style="mix-blend-mode: normal"><path d="M-165.50837,369.32822v-99.0991h966.96697v99.0991z" fill="url(#color-1)"/><path d="M14.88138,272.97912v-49.75h49.75v49.75z" fill="url(#color-2)"/><path d="M60.38138,272.97912v-49.75h49.75v49.75z" data-paper-data="{&quot;index&quot;:null}" fill="url(#color-3)"/><path d="M110.13138,267.47911v49.75h-49.75v-49.75z" fill="url(#color-4)"/><path d="M64.63138,267.47911v49.75h-49.75v-49.75z" data-paper-data="{&quot;index&quot;:null}" fill="url(#color-5)"/><path d="M-7.86862,165.3665v-49.75h49.75v49.75z" fill="url(#color-6)"/><path d="M37.63138,165.3665v-49.75h49.75v49.75z" data-paper-data="{&quot;index&quot;:null}" fill="url(#color-7)"/><path d="M87.38138,159.8665v49.75h-49.75v-49.75z" fill="url(#color-8)"/><path d="M41.88138,159.8665v49.75h-49.75v-49.75z" data-paper-data="{&quot;index&quot;:null}" fill="url(#color-9)"/><path d="M37.63138,84.78091v-49.75h49.75v49.75z" fill="url(#color-10)"/><path d="M83.13138,84.78091v-49.75h49.75v49.75z" data-paper-data="{&quot;index&quot;:null}" fill="url(#color-11)"/><path d="M132.88138,79.28091v49.75h-49.75v-49.75z" fill="url(#color-12)"/><path d="M87.38138,79.28091v49.75h-49.75v-49.75z" data-paper-data="{&quot;index&quot;:null}" fill="url(#color-13)"/><path d="M113.20195,2.75v-49.75h49.75v49.75z" fill="url(#color-14)"/><path d="M158.70195,2.75v-49.75h49.75v49.75z" data-paper-data="{&quot;index&quot;:null}" fill="url(#color-15)"/><path d="M208.45195,-2.75v49.75h-49.75v-49.75z" fill="url(#color-16)"/><path d="M162.95195,-2.75v49.75h-49.75v-49.75z" data-paper-data="{&quot;index&quot;:null}" fill="url(#color-17)"/><path d="M462.04579,62.65591v-49.75h49.75v49.75z" fill="url(#color-18)"/><path d="M507.54579,62.65591v-49.75h49.75v49.75z" data-paper-data="{&quot;index&quot;:null}" fill="url(#color-19)"/><path d="M557.29579,57.15591v49.75h-49.75v-49.75z" fill="url(#color-20)"/><path d="M511.79579,57.15591v49.75h-49.75v-49.75z" data-paper-data="{&quot;index&quot;:null}" fill="url(#color-21)"/><path d="M540.61936,204.29255v-49.75h49.75v49.75z" fill="url(#color-22)"/><path d="M586.11936,204.29255v-49.75h49.75v49.75z" data-paper-data="{&quot;index&quot;:null}" fill="url(#color-23)"/><path d="M635.86936,198.79255v49.75h-49.75v-49.75z" fill="url(#color-24)"/><path d="M590.36936,198.79255v49.75h-49.75v-49.75z" data-paper-data="{&quot;index&quot;:null}" fill="url(#color-25)"/><path d="M39.4009,201.0599v-103.07892h103.07892v103.07892z" fill="url(#color-26)"/><path d="M133.67408,201.0599v-103.07892h103.07892v103.07892z" data-paper-data="{&quot;index&quot;:null}" fill="url(#color-27)"/><path d="M236.753,189.66424v103.07892h-103.07892v-103.07892z" fill="url(#color-28)"/><path d="M142.47982,189.66424v103.07892h-103.07892v-103.07892z" data-paper-data="{&quot;index&quot;:null}" fill="url(#color-29)"/><path d="M-61.04467,40.72874v-103.07892h103.07892v103.07892z" fill="url(#color-30)"/><path d="M33.22851,40.72874v-103.07892h103.07892v103.07892z" data-paper-data="{&quot;index&quot;:null}" fill="url(#color-31)"/><path d="M136.30743,29.33308v103.07892h-103.07892v-103.07892z" fill="url(#color-32)"/><path d="M42.03425,29.33308v103.07892h-103.07892v-103.07892z" data-paper-data="{&quot;index&quot;:null}" fill="url(#color-33)"/><path d="M488.29429,73.82771v-128.17488h128.17488v128.17488z" fill="url(#color-34)"/><path d="M605.51956,73.82771v-128.17488h128.17488v128.17488z" data-paper-data="{&quot;index&quot;:null}" fill="url(#color-35)"/><path d="M733.69444,59.65762v128.17488h-128.17488v-128.17488z" fill="url(#color-36)"/><path d="M616.46917,59.65762v128.17488h-128.17488v-128.17488z" data-paper-data="{&quot;index&quot;:null}" fill="url(#color-37)"/></g></g></svg>