<svg version="1.1" xmlns="http://www.w3.org/2000/svg" xmlns:xlink="http://www.w3.org/1999/xlink" width="841.87977" height="425.975" viewBox="0,0,841.87977,425.975"><defs><linearGradient x1="347.73813" y1="-7.14287" x2="347.73813" y2="367.14287" gradientUnits="userSpaceOnUse" id="color-1"><stop offset="0" stop-color="#000000"/><stop offset="1" stop-color="#000000" stop-opacity="0.45882"/></linearGradient><linearGradient x1="0" y1="-12.74277" x2="0" y2="185.45543" gradientUnits="userSpaceOnUse" id="color-2"><stop offset="0" stop-color="#ffffff" stop-opacity="0.28235"/><stop offset="1" stop-color="#1a1a1a"/></linearGradient><linearGradient x1="31.357" y1="-17.24727" x2="31.357" y2="314.58456" gradientUnits="userSpaceOnUse" id="color-3"><stop offset="0" stop-color="#ffffff" stop-opacity="0.28235"/><stop offset="1" stop-color="#1a1a1a"/></linearGradient><linearGradient x1="62.13778" y1="-9.73976" x2="62.13778" y2="227.49747" gradientUnits="userSpaceOnUse" id="color-4"><stop offset="0" stop-color="#ffffff" stop-opacity="0.28235"/><stop offset="1" stop-color="#1a1a1a"/></linearGradient><linearGradient x1="89.1648" y1="-17.24727" x2="89.1648" y2="189.95994" gradientUnits="userSpaceOnUse" id="color-5"><stop offset="0" stop-color="#ffffff" stop-opacity="0.28235"/><stop offset="1" stop-color="#1a1a1a"/></linearGradient><radialGradient cx="85.41105" cy="308.57856" r="19.51952" gradientUnits="userSpaceOnUse" id="color-6"><stop offset="0" stop-color="#ffffff" stop-opacity="0.28235"/><stop offset="1" stop-color="#ffffff" stop-opacity="0"/></radialGradient><radialGradient cx="56.88252" cy="227.49748" r="28.26169" gradientUnits="userSpaceOnUse" id="color-7"><stop offset="0" stop-color="#ffffff" stop-opacity="0.28235"/><stop offset="1" stop-color="#ffffff" stop-opacity="0"/></radialGradient><radialGradient cx="-21.23106" cy="319.06218" r="82.61808" gradientUnits="userSpaceOnUse" id="color-8"><stop offset="0" stop-color="#ffffff" stop-opacity="0.28235"/><stop offset="1" stop-color="#ffffff" stop-opacity="0"/></radialGradient><radialGradient cx="-12.01202" cy="110.13162" r="59.84681" gradientUnits="userSpaceOnUse" id="color-9"><stop offset="0" stop-color="#ffffff" stop-opacity="0.28235"/><stop offset="1" stop-color="#ffffff" stop-opacity="0"/></radialGradient><radialGradient cx="56.88251" cy="16.51452" r="40.80929" gradientUnits="userSpaceOnUse" id="color-10"><stop offset="0" stop-color="#ffffff" stop-opacity="0.28235"/><stop offset="1" stop-color="#ffffff" stop-opacity="0"/></radialGradient></defs><g transform="translate(103.84912,24.29477)"><g data-paper-data="{&quot;isPaintingLayer&quot;:true}" fill-rule="nonzero" stroke="none" stroke-linecap="butt" stroke-linejoin="miter" stroke-miterlimit="10" stroke-dasharray="" stroke-dashoffset="0" style="mix-blend-mode: normal"><path d="M-42.5544,367.14287v-374.28574h780.58505v374.28574z" fill="url(#color-1)" stroke-width="NaN"/><text transform="translate(119.26106,58.89693) scale(1.17757,1.17757)" font-size="40" xml:space="preserve" fill="#ffffff" fill-rule="nonzero" stroke="none" stroke-width="1" stroke-linecap="butt" stroke-linejoin="miter" stroke-miterlimit="10" stroke-dasharray="" stroke-dashoffset="0" font-family="&quot;OpenSans-Light&quot;, Sans Serif" font-weight="normal" text-anchor="start" style="mix-blend-mode: normal"><tspan x="0" dy="0">Shop</tspan></text><text transform="translate(120.81754,104.96818) scale(0.51288,0.51288)" font-size="40" xml:space="preserve" fill="#ffffff" fill-rule="nonzero" stroke="none" stroke-width="1" stroke-linecap="butt" stroke-linejoin="miter" stroke-miterlimit="10" stroke-dasharray="" stroke-dashoffset="0" font-family="&quot;OpenSans-Light&quot;, Sans Serif" font-weight="normal" text-anchor="start" style="mix-blend-mode: normal"><tspan x="0" dy="0">personalize</tspan><tspan x="0" dy="48px">your</tspan><tspan x="0" dy="48px">game.</tspan></text><text transform="translate(129.3199,325.80712) scale(0.56208,0.56208)" font-size="40" xml:space="preserve" fill="#ffffff" fill-rule="nonzero" stroke="none" stroke-width="1" stroke-linecap="butt" stroke-linejoin="miter" stroke-miterlimit="10" stroke-dasharray="" stroke-dashoffset="0" font-family="&quot;OpenSans-Light&quot;, Sans Serif" font-weight="normal" text-anchor="start" style="mix-blend-mode: normal"><tspan x="0" dy="0">Coins</tspan></text><path d="M-12.01201,185.45543v-198.1982h24.02402v198.1982z" fill="url(#color-2)" stroke-width="0"/><path d="M19.34498,314.58456v-331.83183h24.02403v331.83184z" fill="url(#color-3)" stroke-width="0"/><path d="M56.88252,227.49747v-237.23723h10.51051v237.23724z" fill="url(#color-4)" stroke-width="0"/><path d="M83.90955,189.95994v-207.20721h10.51051v207.20721z" fill="url(#color-5)" stroke-width="0"/><path d="M65.89153,308.57856c0,-10.78033 8.73918,-19.51952 19.51951,-19.51952c10.78033,0 19.51952,8.73919 19.51952,19.51952c0,10.78033 -8.73919,19.51952 -19.51952,19.51952c-10.78033,0 -19.51951,-8.73918 -19.51951,-19.51952z" fill="url(#color-6)" stroke-width="0"/><path d="M28.62084,227.49748c0,-15.6085 12.65317,-28.26168 28.26167,-28.26168c15.6085,0 28.26169,12.65319 28.26169,28.26169c0,15.6085 -12.65318,28.26167 -28.26168,28.26167c-15.6085,0 -28.26167,-12.65318 -28.26167,-28.26167z" fill="url(#color-7)" stroke-width="0"/><path d="M-103.84911,319.06218c0,-45.62871 36.98934,-82.61808 82.61806,-82.61808c45.62872,0 82.61808,36.98937 82.61808,82.61808c0,45.62872 -36.98936,82.61805 -82.61808,82.61805c-45.62871,0 -82.61805,-36.98934 -82.61805,-82.61805z" fill="url(#color-8)" stroke-width="0"/><path d="M-71.85881,110.13162c0,-33.05249 26.7943,-59.84681 59.84679,-59.84681c33.05249,0 59.84681,26.79432 59.84681,59.84681c0,33.05249 -26.79433,59.84679 -59.84681,59.84679c-33.05249,0 -59.84679,-26.7943 -59.84679,-59.84679z" fill="url(#color-9)" stroke-width="0"/><path d="M16.07323,16.51452c0,-22.53835 18.27093,-40.80929 40.80928,-40.80929c22.53835,0 40.80929,18.27094 40.80929,40.80929c0,22.53835 -18.27094,40.80927 -40.80929,40.80927c-22.53835,0 -40.80928,-18.27092 -40.80928,-40.80927z" fill="url(#color-10)" stroke-width="0"/></g></g></svg>