<svg version="1.1" xmlns="http://www.w3.org/2000/svg" xmlns:xlink="http://www.w3.org/1999/xlink" width="1222.86" height="777.78704" viewBox="0,0,1222.86,777.78704"><defs><linearGradient x1="373.50001" y1="-10.63819" x2="373.50001" y2="368.36182" gradientUnits="userSpaceOnUse" id="color-1"><stop offset="0" stop-color="#000000"/><stop offset="1" stop-color="#423000"/></linearGradient></defs><g transform="translate(214.64626,270.84942)"><g data-paper-data="{&quot;isPaintingLayer&quot;:true}" fill-rule="nonzero" stroke="none" stroke-linecap="butt" stroke-linejoin="miter" stroke-miterlimit="10" stroke-dasharray="" stroke-dashoffset="0" style="mix-blend-mode: normal"><path d="M0,368.36182v-379h747v379z" fill="url(#color-1)" stroke-width="NaN"/><path d="M383.66188,463.03709l373.84485,-680.32795l152.36948,36.77891l-373.84485,680.32797z" fill-opacity="0.03529" fill="#ffffff" stroke-width="0"/><path d="M409.90559,-226.94889l-373.84485,680.32795l-152.36949,-36.77891l373.84485,-680.32797z" data-paper-data="{&quot;index&quot;:null}" fill-opacity="0.03529" fill="#ffffff" stroke-width="0"/><path d="M11.84752,387.56607l157.14121,-431.47247l64.04669,23.32565l-157.14121,431.47248z" fill-opacity="0.09804" fill="#ffffff" stroke-width="0"/><path d="M97.62966,406.53617l152.99592,-432.94718l23.74484,8.87214l-152.99592,432.94719z" fill-opacity="0.09804" fill="#ffffff" stroke-width="0"/><path d="M347.17787,460.59188l247.77376,-680.32795l100.98617,36.77891l-247.77376,680.32797z" fill-opacity="0.03529" fill="#ffffff" stroke-width="0"/><path d="M482.43559,490.50317l241.23765,-682.65321l37.43988,13.98922l-241.23764,682.65323z" fill-opacity="0.03529" fill="#ffffff" stroke-width="0"/><path d="M587.7408,492.94838l363.98307,-682.65321l56.48987,13.98922l-363.98305,682.65323z" fill-opacity="0.03529" fill="#ffffff" stroke-width="0"/><path d="M205.82667,-256.86018l-363.98306,682.65321l-56.48987,-13.98922l363.98305,-682.65323z" data-paper-data="{&quot;index&quot;:null}" fill-opacity="0.03529" fill="#ffffff" stroke-width="0"/></g></g></svg>