<svg version="1.1" xmlns="http://www.w3.org/2000/svg" xmlns:xlink="http://www.w3.org/1999/xlink" width="545.54354" height="370.74376" viewBox="0,0,545.54354,370.74376"><defs><linearGradient x1="0.33034" y1="-4.68469" x2="0.33034" y2="213.03305" gradientUnits="userSpaceOnUse" id="color-1"><stop offset="0" stop-color="#ffffff"/><stop offset="1" stop-color="#1a1a1a"/></linearGradient><linearGradient x1="0.33034" y1="-4.68468" x2="0.33034" y2="213.03305" gradientUnits="userSpaceOnUse" id="color-2"><stop offset="0" stop-color="#000000"/><stop offset="1" stop-color="#ffffff"/></linearGradient><linearGradient x1="465.79581" y1="-1.68169" x2="465.79581" y2="214.53453" gradientUnits="userSpaceOnUse" id="color-3"><stop offset="0" stop-color="#ffffff"/><stop offset="1" stop-color="#1a1a1a"/></linearGradient><linearGradient x1="465.79581" y1="-1.68169" x2="465.79581" y2="214.53453" gradientUnits="userSpaceOnUse" id="color-4"><stop offset="0" stop-color="#000000"/><stop offset="1" stop-color="#ffffff"/></linearGradient><linearGradient x1="236.81684" y1="204.02405" x2="236.81684" y2="217.53756" gradientUnits="userSpaceOnUse" id="color-5"><stop offset="0" stop-color="#ffffff"/><stop offset="1" stop-color="#1a1a1a"/></linearGradient><linearGradient x1="236.81682" y1="204.02405" x2="236.81682" y2="217.53756" gradientUnits="userSpaceOnUse" id="color-6"><stop offset="0" stop-color="#000000"/><stop offset="1" stop-color="#ffffff"/></linearGradient><linearGradient x1="175.87352" y1="131.95197" x2="175.87352" y2="152.97296" gradientUnits="userSpaceOnUse" id="color-7"><stop offset="0" stop-color="#ffffff"/><stop offset="1" stop-color="#1a1a1a"/></linearGradient><linearGradient x1="175.87352" y1="131.95197" x2="175.87352" y2="152.97296" gradientUnits="userSpaceOnUse" id="color-8"><stop offset="0" stop-color="#000000"/><stop offset="1" stop-color="#ffffff"/></linearGradient><linearGradient x1="307.38739" y1="56.8769" x2="307.38739" y2="80.9009" gradientUnits="userSpaceOnUse" id="color-9"><stop offset="0" stop-color="#ffffff"/><stop offset="1" stop-color="#1a1a1a"/></linearGradient><linearGradient x1="307.38739" y1="56.8769" x2="307.38739" y2="80.9009" gradientUnits="userSpaceOnUse" id="color-10"><stop offset="0" stop-color="#000000"/><stop offset="1" stop-color="#ffffff"/></linearGradient><linearGradient x1="308.13816" y1="67.38738" x2="308.13816" y2="104.92494" gradientUnits="userSpaceOnUse" id="color-11"><stop offset="0" stop-color="#ffffff"/><stop offset="1" stop-color="#1a1a1a"/></linearGradient><linearGradient x1="308.13816" y1="67.38738" x2="308.13816" y2="104.92494" gradientUnits="userSpaceOnUse" id="color-12"><stop offset="0" stop-color="#000000"/><stop offset="1" stop-color="#ffffff"/></linearGradient><linearGradient x1="224.05404" y1="106.42645" x2="224.05404" y2="136.45646" gradientUnits="userSpaceOnUse" id="color-13"><stop offset="0" stop-color="#ffffff"/><stop offset="1" stop-color="#1a1a1a"/></linearGradient><linearGradient x1="224.05404" y1="106.42645" x2="224.05404" y2="136.45646" gradientUnits="userSpaceOnUse" id="color-14"><stop offset="0" stop-color="#000000"/><stop offset="1" stop-color="#ffffff"/></linearGradient><linearGradient x1="163.99401" y1="56.8769" x2="163.99401" y2="107.92795" gradientUnits="userSpaceOnUse" id="color-15"><stop offset="0" stop-color="#ffffff"/><stop offset="1" stop-color="#1a1a1a"/></linearGradient><linearGradient x1="163.99401" y1="56.8769" x2="163.99401" y2="107.92795" gradientUnits="userSpaceOnUse" id="color-16"><stop offset="0" stop-color="#000000"/><stop offset="1" stop-color="#ffffff"/></linearGradient><linearGradient x1="239.81982" y1="-4.68468" x2="239.81982" y2="19.33933" gradientUnits="userSpaceOnUse" id="color-17"><stop offset="0" stop-color="#ffffff"/><stop offset="1" stop-color="#1a1a1a"/></linearGradient><linearGradient x1="239.81982" y1="-4.68468" x2="239.81982" y2="19.33933" gradientUnits="userSpaceOnUse" id="color-18"><stop offset="0" stop-color="#000000"/><stop offset="1" stop-color="#ffffff"/></linearGradient><linearGradient x1="472.55257" y1="210.03005" x2="472.55257" y2="358.6787" gradientUnits="userSpaceOnUse" id="color-19"><stop offset="0" stop-color="#ffffff"/><stop offset="1" stop-color="#1a1a1a"/></linearGradient><linearGradient x1="472.55257" y1="210.03005" x2="472.55257" y2="358.6787" gradientUnits="userSpaceOnUse" id="color-20"><stop offset="0" stop-color="#000000"/><stop offset="1" stop-color="#ffffff"/></linearGradient><linearGradient x1="355.43545" y1="342.78779" x2="355.43545" y2="364.05908" gradientUnits="userSpaceOnUse" id="color-21"><stop offset="0" stop-color="#ffffff"/><stop offset="1" stop-color="#1a1a1a"/></linearGradient><linearGradient x1="355.43545" y1="342.78779" x2="355.43545" y2="364.05908" gradientUnits="userSpaceOnUse" id="color-22"><stop offset="0" stop-color="#000000"/><stop offset="1" stop-color="#ffffff"/></linearGradient><linearGradient x1="33.55556" y1="262.90792" x2="33.55556" y2="286.93195" gradientUnits="userSpaceOnUse" id="color-23"><stop offset="0" stop-color="#ff6300"/><stop offset="1" stop-color="#ffffff"/></linearGradient><linearGradient x1="34.00044" y1="267.44579" x2="34.00044" y2="282.21612" gradientUnits="userSpaceOnUse" id="color-24"><stop offset="0" stop-color="#ff6f13"/><stop offset="1" stop-color="#9c4901"/></linearGradient><linearGradient x1="-21.86111" y1="132.21246" x2="-21.86111" y2="152.71246" gradientUnits="userSpaceOnUse" id="color-25"><stop offset="0" stop-color="#fff700"/><stop offset="1" stop-color="#918c00"/></linearGradient><linearGradient x1="-17.44444" y1="132.21246" x2="-17.44444" y2="152.71246" gradientUnits="userSpaceOnUse" id="color-26"><stop offset="0" stop-color="#ff9400"/><stop offset="1" stop-color="#dfff00"/></linearGradient><linearGradient x1="7.13889" y1="132.21246" x2="7.13889" y2="152.71246" gradientUnits="userSpaceOnUse" id="color-27"><stop offset="0" stop-color="#fff700"/><stop offset="1" stop-color="#918c00"/></linearGradient><linearGradient x1="11.55556" y1="132.21246" x2="11.55556" y2="152.71246" gradientUnits="userSpaceOnUse" id="color-28"><stop offset="0" stop-color="#ff9400"/><stop offset="1" stop-color="#dfff00"/></linearGradient><linearGradient x1="37.13889" y1="132.21246" x2="37.13889" y2="152.71246" gradientUnits="userSpaceOnUse" id="color-29"><stop offset="0" stop-color="#fff700"/><stop offset="1" stop-color="#918c00"/></linearGradient><linearGradient x1="41.55556" y1="132.21246" x2="41.55556" y2="152.71246" gradientUnits="userSpaceOnUse" id="color-30"><stop offset="0" stop-color="#ff9400"/><stop offset="1" stop-color="#dfff00"/></linearGradient><linearGradient x1="66.13889" y1="132.21246" x2="66.13889" y2="152.71246" gradientUnits="userSpaceOnUse" id="color-31"><stop offset="0" stop-color="#fff700"/><stop offset="1" stop-color="#918c00"/></linearGradient><linearGradient x1="70.55557" y1="132.21246" x2="70.55557" y2="152.71246" gradientUnits="userSpaceOnUse" id="color-32"><stop offset="0" stop-color="#ff9400"/><stop offset="1" stop-color="#dfff00"/></linearGradient><linearGradient x1="97.13889" y1="132.21246" x2="97.13889" y2="152.71246" gradientUnits="userSpaceOnUse" id="color-33"><stop offset="0" stop-color="#fff700"/><stop offset="1" stop-color="#918c00"/></linearGradient><linearGradient x1="101.55557" y1="132.21246" x2="101.55557" y2="152.71246" gradientUnits="userSpaceOnUse" id="color-34"><stop offset="0" stop-color="#ff9400"/><stop offset="1" stop-color="#dfff00"/></linearGradient><linearGradient x1="126.13889" y1="132.21246" x2="126.13889" y2="152.71246" gradientUnits="userSpaceOnUse" id="color-35"><stop offset="0" stop-color="#fff700"/><stop offset="1" stop-color="#918c00"/></linearGradient><linearGradient x1="130.55557" y1="132.21246" x2="130.55557" y2="152.71246" gradientUnits="userSpaceOnUse" id="color-36"><stop offset="0" stop-color="#ff9400"/><stop offset="1" stop-color="#dfff00"/></linearGradient><linearGradient x1="156.13889" y1="132.21246" x2="156.13889" y2="152.71246" gradientUnits="userSpaceOnUse" id="color-37"><stop offset="0" stop-color="#fff700"/><stop offset="1" stop-color="#918c00"/></linearGradient><linearGradient x1="160.55557" y1="132.21246" x2="160.55557" y2="152.71246" gradientUnits="userSpaceOnUse" id="color-38"><stop offset="0" stop-color="#ff9400"/><stop offset="1" stop-color="#dfff00"/></linearGradient><linearGradient x1="185.13889" y1="132.21246" x2="185.13889" y2="152.71246" gradientUnits="userSpaceOnUse" id="color-39"><stop offset="0" stop-color="#fff700"/><stop offset="1" stop-color="#918c00"/></linearGradient><linearGradient x1="189.55556" y1="132.21246" x2="189.55556" y2="152.71246" gradientUnits="userSpaceOnUse" id="color-40"><stop offset="0" stop-color="#ff9400"/><stop offset="1" stop-color="#dfff00"/></linearGradient><linearGradient x1="216.90017" y1="132.21246" x2="216.90017" y2="152.71246" gradientUnits="userSpaceOnUse" id="color-41"><stop offset="0" stop-color="#fff700"/><stop offset="1" stop-color="#918c00"/></linearGradient><linearGradient x1="221.31684" y1="132.21246" x2="221.31684" y2="152.71246" gradientUnits="userSpaceOnUse" id="color-42"><stop offset="0" stop-color="#ff9400"/><stop offset="1" stop-color="#dfff00"/></linearGradient><linearGradient x1="245.90017" y1="132.21246" x2="245.90017" y2="152.71246" gradientUnits="userSpaceOnUse" id="color-43"><stop offset="0" stop-color="#fff700"/><stop offset="1" stop-color="#918c00"/></linearGradient><linearGradient x1="250.31684" y1="132.21246" x2="250.31684" y2="152.71246" gradientUnits="userSpaceOnUse" id="color-44"><stop offset="0" stop-color="#ff9400"/><stop offset="1" stop-color="#dfff00"/></linearGradient><linearGradient x1="277.90017" y1="132.21246" x2="277.90017" y2="152.71246" gradientUnits="userSpaceOnUse" id="color-45"><stop offset="0" stop-color="#fff700"/><stop offset="1" stop-color="#918c00"/></linearGradient><linearGradient x1="282.31683" y1="132.21246" x2="282.31683" y2="152.71246" gradientUnits="userSpaceOnUse" id="color-46"><stop offset="0" stop-color="#ff9400"/><stop offset="1" stop-color="#dfff00"/></linearGradient><linearGradient x1="306.90017" y1="132.21246" x2="306.90017" y2="152.71246" gradientUnits="userSpaceOnUse" id="color-47"><stop offset="0" stop-color="#fff700"/><stop offset="1" stop-color="#918c00"/></linearGradient><linearGradient x1="311.31683" y1="132.21246" x2="311.31683" y2="152.71246" gradientUnits="userSpaceOnUse" id="color-48"><stop offset="0" stop-color="#ff9400"/><stop offset="1" stop-color="#dfff00"/></linearGradient><linearGradient x1="336.51878" y1="131.71246" x2="336.51878" y2="152.21246" gradientUnits="userSpaceOnUse" id="color-49"><stop offset="0" stop-color="#fff700"/><stop offset="1" stop-color="#918c00"/></linearGradient><linearGradient x1="340.93545" y1="131.71246" x2="340.93545" y2="152.21246" gradientUnits="userSpaceOnUse" id="color-50"><stop offset="0" stop-color="#ff9400"/><stop offset="1" stop-color="#dfff00"/></linearGradient><linearGradient x1="365.51878" y1="131.71246" x2="365.51878" y2="152.21246" gradientUnits="userSpaceOnUse" id="color-51"><stop offset="0" stop-color="#fff700"/><stop offset="1" stop-color="#918c00"/></linearGradient><linearGradient x1="369.93545" y1="131.71246" x2="369.93545" y2="152.21246" gradientUnits="userSpaceOnUse" id="color-52"><stop offset="0" stop-color="#ff9400"/><stop offset="1" stop-color="#dfff00"/></linearGradient><linearGradient x1="308.14815" y1="57.0514" x2="308.14815" y2="67.71806" gradientUnits="userSpaceOnUse" id="color-53"><stop offset="0" stop-color="#000000"/><stop offset="1" stop-color="#000000" stop-opacity="0"/></linearGradient><linearGradient x1="476.4815" y1="67.46806" x2="476.4815" y2="69.96806" gradientUnits="userSpaceOnUse" id="color-54"><stop offset="0" stop-color="#000000"/><stop offset="1" stop-color="#000000" stop-opacity="0"/></linearGradient></defs><g transform="translate(34.45344,5.68469)"><g data-paper-data="{&quot;isPaintingLayer&quot;:true}" fill-rule="nonzero" stroke-linejoin="miter" stroke-miterlimit="10" stroke-dasharray="" stroke-dashoffset="0" style="mix-blend-mode: normal"><path d="M-31.95194,213.03305v-217.71772h64.56456v217.71772z" fill="url(#color-1)" stroke="url(#color-2)" stroke-width="2" stroke-linecap="butt"/><path d="M423.00302,214.53453v-216.21622h85.58559v216.21622z" fill="url(#color-3)" stroke="url(#color-4)" stroke-width="2" stroke-linecap="butt"/><path d="M-33.45344,217.53756v-13.51351h540.54054v13.51351z" fill="url(#color-5)" stroke="url(#color-6)" stroke-width="2" stroke-linecap="butt"/><path d="M-33.45344,152.97296v-21.02102h418.6539l-9.5,21.02102z" fill="url(#color-7)" stroke="url(#color-8)" stroke-width="2" stroke-linecap="butt"/><path d="M170.75077,80.9009v-24.02402h273.27327v24.02402z" fill="url(#color-9)" stroke="url(#color-10)" stroke-width="2" stroke-linecap="butt"/><path d="M296.8769,104.92494v-37.53754h22.52252v37.53754z" fill="url(#color-11)" stroke="url(#color-12)" stroke-width="2" stroke-linecap="butt"/><path d="M214.2943,136.45646v-30.03003h19.51952v30.03003z" fill="url(#color-13)" stroke="url(#color-14)" stroke-width="2" stroke-linecap="butt"/><path d="M155.73575,107.92795v-51.05105h16.51652v51.05105z" fill="url(#color-15)" stroke="url(#color-16)" stroke-width="2" stroke-linecap="butt"/><path d="M-28.94894,19.33933v-24.02402h537.53754v24.02402z" fill="url(#color-17)" stroke="url(#color-18)" stroke-width="2" stroke-linecap="butt"/><path d="M435.01502,358.6787v-148.64865h75.07508v148.64865z" fill="url(#color-19)" stroke="url(#color-20)" stroke-width="2" stroke-linecap="butt"/><path d="M253.33333,364.05908v-21.27127h204.2042v21.27127z" fill="url(#color-21)" stroke="url(#color-22)" stroke-width="2" stroke-linecap="butt"/><path d="M21.54355,274.91995c0,-6.63406 5.37797,-12.01201 12.01201,-12.01201c6.63404,0 12.01201,5.37795 12.01201,12.01201c0,6.63406 -5.37797,12.01201 -12.01201,12.01201c-6.63404,0 -12.01201,-5.37795 -12.01201,-12.01201z" fill="url(#color-23)" stroke="#000000" stroke-width="2" stroke-linecap="butt"/><path d="M26.61529,274.83097c0,-4.07871 3.30644,-7.38516 7.38516,-7.38516c4.07871,0 7.38516,3.30646 7.38516,7.38516c0,4.07871 -3.30644,7.38516 -7.38516,7.38516c-4.07871,0 -7.38516,-3.30646 -7.38516,-7.38516z" fill="url(#color-24)" stroke="#000000" stroke-width="2.5" stroke-linecap="butt"/><path d="M-32.11111,152.71246l9.16667,-20.5l20.16667,0.16666l-8.83334,20.33334z" fill="url(#color-25)" stroke="url(#color-26)" stroke-width="1.5" stroke-linecap="butt"/><path d="M-3.11111,152.71246l9.16666,-20.5l20.16667,0.16666l-8.83334,20.33334z" fill="url(#color-27)" stroke="url(#color-28)" stroke-width="1.5" stroke-linecap="butt"/><path d="M26.88889,152.71246l9.16666,-20.5l20.16667,0.16666l-8.83334,20.33334z" fill="url(#color-29)" stroke="url(#color-30)" stroke-width="1.5" stroke-linecap="butt"/><path d="M55.88889,152.71246l9.16666,-20.5l20.16667,0.16666l-8.83334,20.33334z" fill="url(#color-31)" stroke="url(#color-32)" stroke-width="1.5" stroke-linecap="butt"/><path d="M86.88889,152.71246l9.16666,-20.5l20.16667,0.16666l-8.83334,20.33334z" fill="url(#color-33)" stroke="url(#color-34)" stroke-width="1.5" stroke-linecap="butt"/><path d="M115.88889,152.71246l9.16666,-20.5l20.16667,0.16666l-8.83334,20.33334z" fill="url(#color-35)" stroke="url(#color-36)" stroke-width="1.5" stroke-linecap="butt"/><path d="M145.88889,152.71246l9.16666,-20.5l20.16667,0.16666l-8.83334,20.33334z" fill="url(#color-37)" stroke="url(#color-38)" stroke-width="1.5" stroke-linecap="butt"/><path d="M174.8889,152.71246l9.16666,-20.5l20.16667,0.16666l-8.83334,20.33334z" fill="url(#color-39)" stroke="url(#color-40)" stroke-width="1.5" stroke-linecap="butt"/><path d="M206.65017,152.71246l9.16667,-20.5l20.16667,0.16666l-8.83333,20.33334z" fill="url(#color-41)" stroke="url(#color-42)" stroke-width="1.5" stroke-linecap="butt"/><path d="M235.65017,152.71246l9.16667,-20.5l20.16667,0.16666l-8.83333,20.33334z" fill="url(#color-43)" stroke="url(#color-44)" stroke-width="1.5" stroke-linecap="butt"/><path d="M267.65017,152.71246l9.16667,-20.5l20.16667,0.16666l-8.83333,20.33334z" fill="url(#color-45)" stroke="url(#color-46)" stroke-width="1.5" stroke-linecap="butt"/><path d="M296.65017,152.71246l9.16667,-20.5l20.16667,0.16666l-8.83333,20.33334z" fill="url(#color-47)" stroke="url(#color-48)" stroke-width="1.5" stroke-linecap="butt"/><path d="M326.26876,152.21246l9.16667,-20.5l20.16667,0.16666l-8.83334,20.33334z" fill="url(#color-49)" stroke="url(#color-50)" stroke-width="1.5" stroke-linecap="butt"/><path d="M355.26878,152.21246l9.16667,-20.5l20.16667,0.16666l-8.83334,20.33334z" fill="url(#color-51)" stroke="url(#color-52)" stroke-width="1.5" stroke-linecap="butt"/><path d="M308.14815,67.71806v-10.66667v10v-2.66667" fill="none" stroke="url(#color-53)" stroke-width="2.5" stroke-linecap="round"/><path d="M445.14816,68.71806h62.66667" fill="none" stroke="url(#color-54)" stroke-width="2.5" stroke-linecap="round"/></g></g></svg>