<svg version="1.1" xmlns="http://www.w3.org/2000/svg" xmlns:xlink="http://www.w3.org/1999/xlink" width="59.49352" height="48.31206" viewBox="0,0,59.49352,48.31206"><defs><linearGradient x1="182.65118" y1="327.17025" x2="182.65118" y2="373.5" gradientUnits="userSpaceOnUse" id="color-1"><stop offset="0" stop-color="#000000"/><stop offset="1" stop-color="#232323"/></linearGradient><linearGradient x1="141.65983" y1="327.02735" x2="141.65983" y2="373.3571" gradientUnits="userSpaceOnUse" id="color-2"><stop offset="0" stop-color="#000000"/><stop offset="1" stop-color="#232323"/></linearGradient></defs><g transform="translate(-132.40874,-326.01096)"><g data-paper-data="{&quot;isPaintingLayer&quot;:true}" fill-rule="nonzero" stroke-linejoin="miter" stroke-miterlimit="10" stroke-dasharray="" stroke-dashoffset="0" style="mix-blend-mode: normal"><path d="M174.16692,332.318l16.96851,-5.14775l-0.76263,46.32975l-14.10865,-1.3346z" data-paper-data="{&quot;index&quot;:null}" fill="url(#color-1)" stroke="#ffffff" stroke-width="1.5" stroke-linecap="round"/><path d="M187.9578,349.19118c0.63178,0 1.14394,0.51216 1.14394,1.14394c0,0.63178 -0.51216,1.14394 -1.14394,1.14394c-0.63178,0 -1.14394,-0.51216 -1.14394,-1.14394c0,-0.63178 0.51216,-1.14394 1.14394,-1.14394z" data-paper-data="{&quot;index&quot;:null}" fill="none" stroke="#9e9e9e" stroke-width="1.5" stroke-linecap="butt"/><path d="M150.14409,332.1751l-16.96851,-5.14775l0.76263,46.32975l14.10865,-1.3346z" fill="url(#color-2)" stroke="#ffffff" stroke-width="1.5" stroke-linecap="round"/><path d="M147.47489,371.90952c0,0 0,-25.64347 0,-33.44867c0,-4.20323 2.6692,-7.15802 2.6692,-7.15802c0,0 1.92572,-2.5421 6.48235,-2.5421c2.22183,0 4.43455,0 6.10104,0c1.41162,0 3.21517,0 5.0842,0c4.86261,0 7.6263,2.41499 7.6263,2.41499c0,0 2.5421,3.33636 2.5421,7.66644c0,7.84214 0,33.06736 0,33.06736z" fill="#000000" stroke="#ffffff" stroke-width="0.5" stroke-linecap="butt"/><path d="M136.92517,350.19222c0,0.63178 -0.51216,1.14394 -1.14394,1.14394c-0.63178,0 -1.14394,-0.51216 -1.14394,-1.14394c0,-0.63178 0.51216,-1.14394 1.14394,-1.14394c0.63178,0 1.14394,0.51216 1.14394,1.14394z" fill="none" stroke="#9e9e9e" stroke-width="1.5" stroke-linecap="butt"/></g></g></svg>