<svg version="1.1" xmlns="http://www.w3.org/2000/svg" xmlns:xlink="http://www.w3.org/1999/xlink" width="85.63824" height="291.22723" viewBox="0,0,85.63824,291.22723"><defs><linearGradient x1="320" y1="164.55551" x2="320" y2="195.44449" gradientUnits="userSpaceOnUse" id="color-1"><stop offset="0" stop-color="#000000"/><stop offset="1" stop-color="#292929"/></linearGradient></defs><g transform="translate(-280.2093,94.03275)"><g data-paper-data="{&quot;isPaintingLayer&quot;:true}" fill-rule="nonzero" stroke-linejoin="miter" stroke-miterlimit="10" stroke-dasharray="" stroke-dashoffset="0" style="mix-blend-mode: normal"><path d="M281.9593,195.44449c0,0 0,-14.39324 0,-20.05727c0,-4.16235 4.00059,-8.09447 4.00059,-8.09447c0,0 3.08688,-2.73725 9.07611,-2.73725c13.14646,0 63.00469,0 63.00469,0c0,0 0,14.43028 0,20.09624c0,4.15224 -4.4217,8.0555 -4.4217,8.0555c0,0 -2.94767,2.73725 -9.10201,2.73725c-13.23652,0 -62.55769,0 -62.55769,0z" fill="url(#color-1)" stroke-opacity="0.40392" stroke="#ffffff" stroke-width="3.5" stroke-linecap="butt"/><path d="M332.31393,180.20428c0,-6.11343 4.95591,-11.06934 11.06934,-11.06934c6.11343,0 11.06934,4.95592 11.06934,11.06934c0,6.11343 -4.95591,11.06934 -11.06934,11.06934c-6.11343,0 -11.06934,-4.95591 -11.06934,-11.06934z" fill="#00e6ff" stroke="#000000" stroke-width="0" stroke-linecap="butt"/><path d="M347.76474,175.70165l-1.59811,2.58673l-4.03023,6.41851l-3.13462,-4.03023" fill="none" stroke="#000000" stroke-width="3.5" stroke-linecap="round"/><text transform="translate(286.39086,186.83301) scale(0.47526,0.47526)" font-size="40" xml:space="preserve" fill="#ffffff" fill-rule="nonzero" stroke="none" stroke-width="1" stroke-linecap="butt" stroke-linejoin="miter" stroke-miterlimit="10" stroke-dasharray="" stroke-dashoffset="0" font-family="&quot;OpenSans-Medium&quot;, Sans Serif" font-weight="normal" text-anchor="start" style="mix-blend-mode: normal"><tspan x="0" dy="0">next</tspan></text><path d="M332.31393,-71.22026v-22.81248h33.5336v22.81248z" fill="#ff0000" stroke="none" stroke-width="0" stroke-linecap="butt"/><path d="M343.96398,-78.12389l10.23351,-9.00524" fill="none" stroke="#ffffff" stroke-width="1.5" stroke-linecap="round"/><path d="M354.11196,-78.12389l-10.06246,-9.00524" fill="none" stroke="#ffffff" stroke-width="1.5" stroke-linecap="round"/></g></g></svg>