<svg version="1.1" xmlns="http://www.w3.org/2000/svg" xmlns:xlink="http://www.w3.org/1999/xlink" width="96.69219" height="89.70683" viewBox="0,0,96.69219,89.70683"><defs><radialGradient cx="297.3832" cy="200.98289" r="48.3461" gradientUnits="userSpaceOnUse" id="color-1"><stop offset="0" stop-color="#313131"/><stop offset="1" stop-color="#313131" stop-opacity="0"/></radialGradient></defs><g transform="translate(-249.0371,-156.12947)"><g data-paper-data="{&quot;isPaintingLayer&quot;:true}" fill-rule="nonzero" stroke-linecap="butt" stroke-linejoin="miter" stroke-miterlimit="10" stroke-dasharray="" stroke-dashoffset="0" style="mix-blend-mode: normal"><path d="M249.0371,245.8363v-89.70683h96.69219v89.70683z" fill="url(#color-1)" stroke="none" stroke-width="0"/><g stroke="none" stroke-width="0"><path d="M266.5573,229.98971l-11.41273,-26.26282l73.06451,-31.75079l11.41273,26.26282z" fill-opacity="0.37255" fill="#0090ff"/><path d="M260.25815,211.12627l-2.63854,-6.07177l5.51979,-2.39867l2.63854,6.07177z" fill-opacity="0.37255" fill="#ffffff"/><path d="M266.51837,208.40582l-2.63854,-6.07177l5.51979,-2.39867l2.63854,6.07177z" fill-opacity="0.37255" fill="#ffffff"/><path d="M272.77413,205.68734l-2.63854,-6.07177l5.51979,-2.39867l2.63854,6.07177z" fill-opacity="0.37255" fill="#ffffff"/><path d="M279.03435,202.9669l-2.63854,-6.07177l5.51979,-2.39867l2.63854,6.07177z" fill-opacity="0.37255" fill="#ffffff"/><path d="M285.10165,200.33032l-2.63854,-6.07177l5.51979,-2.39867l2.63854,6.07177z" fill-opacity="0.37255" fill="#ffffff"/><path d="M291.36187,197.60988l-2.63854,-6.07177l5.51979,-2.39867l2.63854,6.07177z" fill-opacity="0.37255" fill="#ffffff"/><path d="M297.61762,194.8914l-2.63854,-6.07177l5.51979,-2.39867l2.63854,6.07177z" fill-opacity="0.37255" fill="#ffffff"/><path d="M303.87785,192.17096l-2.63854,-6.07177l5.51979,-2.39867l2.63854,6.07177z" fill-opacity="0.37255" fill="#ffffff"/><path d="M310.12914,189.4544l-2.63854,-6.07177l5.51979,-2.39867l2.63854,6.07177z" fill-opacity="0.37255" fill="#ffffff"/><path d="M316.38937,186.73398l-2.63854,-6.07177l5.51979,-2.39867l2.63854,6.07177z" fill-opacity="0.37255" fill="#ffffff"/><path d="M322.64513,184.01548l-2.63854,-6.07177l5.51979,-2.39867l2.63854,6.07177z" fill-opacity="0.37255" fill="#ffffff"/><path d="M265.66252,217.85538l-2.63854,-6.07177l5.51979,-2.39867l2.63854,6.07177z" fill-opacity="0.37255" fill="#ffffff"/><path d="M271.92275,215.13494l-2.63854,-6.07177l5.51979,-2.39867l2.63854,6.07177z" fill-opacity="0.37255" fill="#ffffff"/><path d="M278.17851,212.41646l-2.63854,-6.07177l5.51979,-2.39867l2.63854,6.07177z" fill-opacity="0.37255" fill="#ffffff"/><path d="M284.43872,209.69602l-2.63854,-6.07177l5.51979,-2.39867l2.63854,6.07177z" fill-opacity="0.37255" fill="#ffffff"/><path d="M290.50603,207.05944l-2.63854,-6.07177l5.51979,-2.39867l2.63854,6.07177z" fill-opacity="0.37255" fill="#ffffff"/><path d="M296.76624,204.33899l-2.63854,-6.07177l5.51979,-2.39867l2.63854,6.07177z" fill-opacity="0.37255" fill="#ffffff"/><path d="M303.02201,201.62051l-2.63854,-6.07177l5.51979,-2.39867l2.63854,6.07177z" fill-opacity="0.37255" fill="#ffffff"/><path d="M309.28223,198.90008l-2.63854,-6.07177l5.51979,-2.39867l2.63854,6.07177z" fill-opacity="0.37255" fill="#ffffff"/><path d="M315.53352,196.18351l-2.63854,-6.07177l5.51979,-2.39867l2.63854,6.07177z" fill-opacity="0.37255" fill="#ffffff"/><path d="M321.79375,193.46309l-2.63854,-6.07177l5.51979,-2.39867l2.63854,6.07177z" fill-opacity="0.37255" fill="#ffffff"/><path d="M328.0495,190.74459l-2.63854,-6.07177l5.51979,-2.39867l2.63854,6.07177z" fill-opacity="0.37255" fill="#ffffff"/><path d="M267.26709,226.56915l-2.63854,-6.07177l5.51979,-2.39867l2.63854,6.07177z" fill-opacity="0.37255" fill="#ffffff"/><path d="M273.52732,223.84871l-2.63854,-6.07177l5.51979,-2.39867l2.63854,6.07177z" fill-opacity="0.37255" fill="#ffffff"/><path d="M279.78308,221.13023l-2.63854,-6.07177l5.51979,-2.39867l2.63854,6.07177z" fill-opacity="0.37255" fill="#ffffff"/><path d="M286.04328,218.4098l-2.63854,-6.07177l5.51979,-2.39867l2.63854,6.07177z" fill-opacity="0.37255" fill="#ffffff"/><path d="M292.11059,215.7732l-2.63854,-6.07177l5.51979,-2.39867l2.63854,6.07177z" fill-opacity="0.37255" fill="#ffffff"/><path d="M298.37082,213.05277l-2.63854,-6.07177l5.51979,-2.39867l2.63854,6.07177z" fill-opacity="0.37255" fill="#ffffff"/><path d="M304.62657,210.33427l-2.63854,-6.07177l5.51979,-2.39867l2.63854,6.07177z" fill-opacity="0.37255" fill="#ffffff"/><path d="M310.88679,207.61385l-2.63854,-6.07177l5.51979,-2.39867l2.63854,6.07177z" fill-opacity="0.37255" fill="#ffffff"/><path d="M317.13809,204.89729l-2.63854,-6.07177l5.51979,-2.39867l2.63854,6.07177z" fill-opacity="0.37255" fill="#ffffff"/><path d="M323.39831,202.17687l-2.63854,-6.07177l5.51979,-2.39867l2.63854,6.07177z" fill-opacity="0.37255" fill="#ffffff"/><path d="M329.65407,199.45837l-2.63854,-6.07177l5.51979,-2.39867l2.63854,6.07177z" fill-opacity="0.37255" fill="#ffffff"/></g><text transform="translate(257.41313,174.15505) scale(0.34394,0.34394)" font-size="40" xml:space="preserve" fill="#ffffff" fill-rule="nonzero" stroke="#ffffff" stroke-width="2" stroke-linecap="butt" stroke-linejoin="miter" stroke-miterlimit="10" stroke-dasharray="" stroke-dashoffset="0" font-family="&quot;OpenSans-Medium&quot;, Sans Serif" font-weight="normal" text-anchor="start" style="mix-blend-mode: normal"><tspan x="0" dy="0">Keyboard</tspan></text></g></g></svg>