<svg version="1.1" xmlns="http://www.w3.org/2000/svg" xmlns:xlink="http://www.w3.org/1999/xlink" width="489.07284" height="353.28714" viewBox="0,0,489.07284,353.28714"><defs><linearGradient x1="240.00003" y1="30.44096" x2="240.00003" y2="329.55907" gradientUnits="userSpaceOnUse" id="color-1"><stop offset="0" stop-color="#2b2b2b"/><stop offset="1" stop-color="#000000"/></linearGradient><linearGradient x1="-2.7" y1="15.63333" x2="483.30001" y2="15.63333" gradientUnits="userSpaceOnUse" id="color-2"><stop offset="0" stop-color="#000000"/><stop offset="1" stop-color="#2b2b2b"/></linearGradient></defs><g transform="translate(4.53641,-0.13333)"><g data-paper-data="{&quot;isPaintingLayer&quot;:true}" fill-rule="nonzero" stroke="none" stroke-linecap="butt" stroke-linejoin="miter" stroke-miterlimit="10" stroke-dasharray="" stroke-dashoffset="0" style="mix-blend-mode: normal"><path d="M375.43625,353.42047v-57.05706h108.32655v57.05706z" fill="#000000" stroke-width="0"/><path d="M-4.53641,329.55907v-299.11811h489.07284v299.11811z" fill="url(#color-1)" stroke-width="0"/><path d="M-2.7,31.13333v-31h486v31z" fill="url(#color-2)" stroke-width="0"/><text transform="translate(109.73532,78.90052) scale(0.7621,0.7621)" font-size="40" xml:space="preserve" fill="#ffffff" fill-rule="nonzero" stroke="none" stroke-width="1" stroke-linecap="butt" stroke-linejoin="miter" stroke-miterlimit="10" stroke-dasharray="" stroke-dashoffset="0" font-family="&quot;OpenSans-Light&quot;, Sans Serif" font-weight="normal" text-anchor="start" style="mix-blend-mode: normal"><tspan x="0" dy="0">Sound &amp; Gamepad</tspan></text><text transform="translate(7.45508,20.73647) scale(0.3115,0.3115)" font-size="40" xml:space="preserve" fill="#ffffff" fill-rule="nonzero" stroke="none" stroke-width="1" stroke-linecap="butt" stroke-linejoin="miter" stroke-miterlimit="10" stroke-dasharray="" stroke-dashoffset="0" font-family="&quot;OpenSans-Medium&quot;, Sans Serif" font-weight="normal" text-anchor="start" style="mix-blend-mode: normal"><tspan x="0" dy="0">Settings.appx &gt; sg.cfg</tspan></text><path d="M4.97504,161.02874v-48h137v48z" fill="#ffffff" stroke-width="0"/><text transform="translate(3.83222,260.02874) scale(0.5,0.5)" font-size="40" xml:space="preserve" fill="#ffffff" fill-rule="nonzero" stroke="none" stroke-width="1" stroke-linecap="butt" stroke-linejoin="miter" stroke-miterlimit="10" stroke-dasharray="" stroke-dashoffset="0" font-family="&quot;OpenSans-Light&quot;, Sans Serif" font-weight="normal" text-anchor="start" style="mix-blend-mode: normal"><tspan x="0" dy="0">Gamepad size</tspan></text><path d="M385.57274,48.46198c0,0 -6,-6.98178 -6,-13.76761c0,-7.20325 6,-15.27443 6,-15.27443c0,0 4.99742,-7 13.56081,-7c10.48439,0 34.36768,0 52,0c9.91354,0 13.06081,6.5 13.06081,6.5c0,0 6.5,6.48734 6.5,13.27444c0,7.20226 -4,14.76761 -4,14.76761c0,0 -4.11598,7.5 -15.06081,7.5c-17.73919,0 -42.90958,0 -53,0c-8.39144,0 -13.06081,-6 -13.06081,-6z" fill="#1b1b1b" stroke-width="0"/><text transform="translate(29.52759,300.94331) scale(0.25712,0.25712)" font-size="40" xml:space="preserve" fill="#ffffff" fill-rule="nonzero" stroke="none" stroke-width="1" stroke-linecap="butt" stroke-linejoin="miter" stroke-miterlimit="10" stroke-dasharray="" stroke-dashoffset="0" font-family="&quot;OpenSans-Medium&quot;, Sans Serif" font-weight="normal" text-anchor="start" style="mix-blend-mode: normal"><tspan x="0" dy="0">Use [tab] and [arrow keys] to select and control the </tspan><tspan x="0" dy="48px">Volume control applet and Gamepad Opacity Control Applet</tspan></text><g><path d="M3.35059,302.21677c0,-5.52285 4.47715,-10 10,-10c5.52285,0 10,4.47715 10,10c0,5.52285 -4.47715,10 -10,10c-5.52285,0 -10,-4.47715 -10,-10z" fill="#ffffff" stroke-width="0"/><text transform="translate(10.29883,309.48551) scale(0.5,0.5)" font-size="40" xml:space="preserve" fill="#000000" fill-rule="nonzero" stroke="none" stroke-width="1" stroke-linecap="butt" stroke-linejoin="miter" stroke-miterlimit="10" stroke-dasharray="" stroke-dashoffset="0" font-family="&quot;OpenSans-Bold&quot;, Sans Serif" font-weight="normal" text-anchor="start" style="mix-blend-mode: normal"><tspan x="0" dy="0">i</tspan></text></g><path d="M144.97506,161.02874v-48h167v48z" fill="#ffffff" stroke-width="0"/></g></g></svg>