<svg version="1.1" xmlns="http://www.w3.org/2000/svg" xmlns:xlink="http://www.w3.org/1999/xlink" width="91.70317" height="87.11261" viewBox="0,0,91.70317,87.11261"><defs><radialGradient cx="320" cy="180" r="45.85159" gradientUnits="userSpaceOnUse" id="color-1"><stop offset="0" stop-color="#2d2d2d"/><stop offset="1" stop-color="#2d2d2d" stop-opacity="0"/></radialGradient></defs><g transform="translate(-274.14841,-135.4265)"><g data-paper-data="{&quot;isPaintingLayer&quot;:true}" fill-rule="nonzero" stroke-linecap="butt" stroke-linejoin="miter" stroke-miterlimit="10" stroke-dasharray="" stroke-dashoffset="0" style="mix-blend-mode: normal"><path d="M274.14842,222.53911v-85.07822h91.70317v85.07822z" fill="url(#color-1)" stroke="none" stroke-width="0"/><g fill-opacity="0.87451" fill="#0968b7" stroke-opacity="0.22745" stroke="#ffffff" stroke-width="0"><path d="M331.32797,218.04248l-18.73405,-52.95441l29.32943,-10.37608l18.73405,52.95441z"/><path d="M330.78497,216.50756l-1.90056,-5.37219l29.32943,-10.37608l1.90056,5.37219z"/><path d="M313.11431,166.55903l-0.67877,-1.91864l29.32943,-10.37608l0.67877,1.91864z"/></g><path d="M293.63711,160.31309c0,2.08875 -0.51834,3.78202 -1.15776,3.78202c-0.63941,0 -1.15776,-1.69327 -1.15776,-3.78202c0,-2.08875 0.51835,-3.78202 1.15776,-3.78202c0.63941,0 1.15776,1.69327 1.15776,3.78202z" fill-opacity="0.87451" fill="#0968b7" stroke-opacity="0.22745" stroke="#ffffff" stroke-width="0"/><g fill-opacity="0.87451" fill="#0968b7" stroke-opacity="0.22745" stroke="#ffffff" stroke-width="0"><path d="M284.45291,190.529v-27.67826h16.29981v27.67826z"/><path d="M284.55466,174.75646v-11.80396h7.22484l-2.03516,9.26001z"/><path d="M294.62874,171.90723l-1.2211,-8.95473h7.22484v11.80396z"/></g><path d="M316.97313,162.89399c-0.04324,0.50695 -0.55019,0.46371 -0.55019,0.46371l-0.6143,-0.05545c-1.3783,-0.42765 -2.74595,-0.83093 -3.91245,-1.73003c-1.75426,-1.35213 -2.97235,-3.61414 -4.91772,-4.7144c-0.55628,-0.31461 -1.18823,-0.471 -1.78103,-0.70976c-1.12389,-0.21067 -2.27735,-0.54483 -3.41374,-0.65867c-4.87461,-0.48834 -6.8216,3.98905 -8.74787,7.60079c0,0 -0.23943,0.44893 -0.68836,0.20951c-0.44893,-0.23943 -0.20951,-0.68836 -0.20951,-0.68836c2.13703,-4.00692 4.34944,-8.63818 9.70431,-8.13783c1.21039,0.1131 2.44764,0.46365 3.64151,0.69811c0.07341,0.02918 1.94007,0.76865 1.99818,0.80193c2.00175,1.14614 3.23148,3.40228 5.03545,4.79274c1.03763,0.79978 2.26471,1.15004 3.4878,1.53757l0.50422,0.03996c0,0 0.50695,0.04324 0.46371,0.55019z" fill-opacity="0.87451" fill="#0968b7" stroke-opacity="0.22745" stroke="#ffffff" stroke-width="0.5"/><path d="M348.48613,188.62951c0,3.37197 -2.67278,6.1055 -5.96982,6.1055c-3.29705,0 -5.96982,-2.73352 -5.96982,-6.1055c0,-3.37197 2.67278,-6.1055 5.96982,-6.1055c3.29705,0 5.96982,2.73352 5.96982,6.1055z" fill-opacity="0.87451" fill="#0968b7" stroke-opacity="0.22745" stroke="#ffffff" stroke-width="5"/><path d="M345.50122,188.62951c0,1.76092 -1.33639,3.18843 -2.9849,3.18843c-1.64852,0 -2.9849,-1.4275 -2.9849,-3.18843c0,-1.76092 1.33639,-3.18843 2.9849,-3.18843c1.64852,0 2.9849,1.4275 2.9849,3.18843z" fill-opacity="0.87451" fill="#0968b7" stroke-opacity="0.22745" stroke="#ffffff" stroke-width="5"/><path d="M332.06912,173.84064c0,3.37197 -2.67278,6.1055 -5.96982,6.1055c-3.29704,0 -5.96982,-2.73352 -5.96982,-6.1055c0,-3.37197 2.67278,-6.1055 5.96982,-6.1055c3.29704,0 5.96982,2.73352 5.96982,6.1055z" fill-opacity="0.87451" fill="#0968b7" stroke-opacity="0.22745" stroke="#ffffff" stroke-width="5"/><path d="M329.08421,173.84064c0,1.76092 -1.33639,3.18843 -2.9849,3.18843c-1.64852,0 -2.9849,-1.4275 -2.9849,-3.18843c0,-1.76092 1.33639,-3.18843 2.9849,-3.18843c1.64852,0 2.9849,1.4275 2.9849,3.18843z" fill-opacity="0.87451" fill="#0968b7" stroke-opacity="0.22745" stroke="#ffffff" stroke-width="5"/><path d="M338.44598,199.48373c0,3.37197 -2.67278,6.1055 -5.96982,6.1055c-3.29704,0 -5.96982,-2.73352 -5.96982,-6.1055c0,-3.37197 2.67278,-6.1055 5.96982,-6.1055c3.29704,0 5.96982,2.73352 5.96982,6.1055z" fill-opacity="0.87451" fill="#0968b7" stroke-opacity="0.22745" stroke="#ffffff" stroke-width="5"/><path d="M335.46106,199.48373c0,1.76092 -1.33639,3.18843 -2.98491,3.18843c-1.64852,0 -2.9849,-1.4275 -2.9849,-3.18843c0,-1.76092 1.33639,-3.18843 2.9849,-3.18843c1.64852,0 2.98491,1.4275 2.98491,3.18843z" fill-opacity="0.87451" fill="#0968b7" stroke-opacity="0.22745" stroke="#ffffff" stroke-width="5"/><text transform="translate(281.0364,149.67057) scale(0.3262,0.3262)" font-size="40" xml:space="preserve" fill="#ffffff" fill-rule="nonzero" stroke="#ffffff" stroke-width="2" stroke-linecap="butt" stroke-linejoin="miter" stroke-miterlimit="10" stroke-dasharray="" stroke-dashoffset="0" font-family="&quot;OpenSans-Medium&quot;, Sans Serif" font-weight="normal" text-anchor="start" style="mix-blend-mode: normal"><tspan x="0" dy="0">Point</tspan></text></g></g></svg>