<svg version="1.1" xmlns="http://www.w3.org/2000/svg" xmlns:xlink="http://www.w3.org/1999/xlink" width="489.07284" height="353.28714" viewBox="0,0,489.07284,353.28714"><defs><linearGradient x1="240.00003" y1="30.44096" x2="240.00003" y2="329.55907" gradientUnits="userSpaceOnUse" id="color-1"><stop offset="0" stop-color="#2b2b2b"/><stop offset="1" stop-color="#000000"/></linearGradient><linearGradient x1="-2.7" y1="15.63333" x2="483.30001" y2="15.63333" gradientUnits="userSpaceOnUse" id="color-2"><stop offset="0" stop-color="#000000"/><stop offset="1" stop-color="#2b2b2b"/></linearGradient><linearGradient x1="155.36247" y1="99.62611" x2="155.36247" y2="119.62611" gradientUnits="userSpaceOnUse" id="color-3"><stop offset="0" stop-color="#000000"/><stop offset="1" stop-color="#000000" stop-opacity="0"/></linearGradient><linearGradient x1="174.46129" y1="99.62611" x2="174.46129" y2="128.62611" gradientUnits="userSpaceOnUse" id="color-4"><stop offset="0" stop-color="#000000"/><stop offset="1" stop-color="#000000" stop-opacity="0"/></linearGradient><linearGradient x1="168.92178" y1="98.62611" x2="168.92178" y2="140.66816" gradientUnits="userSpaceOnUse" id="color-5"><stop offset="0" stop-color="#000000"/><stop offset="1" stop-color="#000000" stop-opacity="0"/></linearGradient><linearGradient x1="142.50627" y1="99.47106" x2="142.50627" y2="123.97456" gradientUnits="userSpaceOnUse" id="color-6"><stop offset="0" stop-color="#000000"/><stop offset="1" stop-color="#ffffff"/></linearGradient><linearGradient x1="137.82562" y1="98.62611" x2="137.82562" y2="134.14946" gradientUnits="userSpaceOnUse" id="color-7"><stop offset="0" stop-color="#000000"/><stop offset="1" stop-color="#000000" stop-opacity="0"/></linearGradient><linearGradient x1="160.95895" y1="99.47106" x2="160.95895" y2="123.97456" gradientUnits="userSpaceOnUse" id="color-8"><stop offset="0" stop-color="#000000"/><stop offset="1" stop-color="#000000" stop-opacity="0"/></linearGradient><linearGradient x1="149.76597" y1="98.62611" x2="149.76597" y2="134.14946" gradientUnits="userSpaceOnUse" id="color-9"><stop offset="0" stop-color="#000000"/><stop offset="1" stop-color="#000000" stop-opacity="0"/></linearGradient><linearGradient x1="320.02914" y1="99.62611" x2="320.02914" y2="119.62611" gradientUnits="userSpaceOnUse" id="color-10"><stop offset="0" stop-color="#000000"/><stop offset="1" stop-color="#000000" stop-opacity="0"/></linearGradient><linearGradient x1="339.12799" y1="99.62612" x2="339.12799" y2="128.62612" gradientUnits="userSpaceOnUse" id="color-11"><stop offset="0" stop-color="#000000"/><stop offset="1" stop-color="#000000" stop-opacity="0"/></linearGradient><linearGradient x1="333.58844" y1="98.62611" x2="333.58844" y2="140.66816" gradientUnits="userSpaceOnUse" id="color-12"><stop offset="0" stop-color="#000000"/><stop offset="1" stop-color="#000000" stop-opacity="0"/></linearGradient><linearGradient x1="307.17295" y1="99.47107" x2="307.17295" y2="123.97456" gradientUnits="userSpaceOnUse" id="color-13"><stop offset="0" stop-color="#000000"/><stop offset="1" stop-color="#ffffff"/></linearGradient><linearGradient x1="302.49231" y1="98.62611" x2="302.49231" y2="134.14946" gradientUnits="userSpaceOnUse" id="color-14"><stop offset="0" stop-color="#000000"/><stop offset="1" stop-color="#000000" stop-opacity="0"/></linearGradient><linearGradient x1="325.62564" y1="99.47107" x2="325.62564" y2="123.97456" gradientUnits="userSpaceOnUse" id="color-15"><stop offset="0" stop-color="#000000"/><stop offset="1" stop-color="#000000" stop-opacity="0"/></linearGradient><linearGradient x1="314.43263" y1="98.62611" x2="314.43263" y2="134.14946" gradientUnits="userSpaceOnUse" id="color-16"><stop offset="0" stop-color="#000000"/><stop offset="1" stop-color="#000000" stop-opacity="0"/></linearGradient></defs><g transform="translate(4.53641,-0.13333)"><g data-paper-data="{&quot;isPaintingLayer&quot;:true}" fill-rule="nonzero" stroke="none" stroke-linecap="butt" stroke-linejoin="miter" stroke-miterlimit="10" stroke-dasharray="" stroke-dashoffset="0" style="mix-blend-mode: normal"><path d="M375.43625,353.42047v-57.05706h108.32655v57.05706z" fill="#000000" stroke-width="0"/><path d="M-4.53641,329.55907v-299.11811h489.07284v299.11811z" fill="url(#color-1)" stroke-width="0"/><path d="M-2.7,31.13333v-31h486v31z" fill="url(#color-2)" stroke-width="0"/><text transform="translate(160.34686,74.41497) scale(0.8859,0.8859)" font-size="40" xml:space="preserve" fill="#ffffff" fill-rule="nonzero" stroke="none" stroke-width="1" stroke-linecap="butt" stroke-linejoin="miter" stroke-miterlimit="10" stroke-dasharray="" stroke-dashoffset="0" font-family="&quot;OpenSans-Light&quot;, Sans Serif" font-weight="normal" text-anchor="start" style="mix-blend-mode: normal"><tspan x="0" dy="0">Gameplay</tspan></text><text transform="translate(7.45508,20.73647) scale(0.3115,0.3115)" font-size="40" xml:space="preserve" fill="#ffffff" fill-rule="nonzero" stroke="none" stroke-width="1" stroke-linecap="butt" stroke-linejoin="miter" stroke-miterlimit="10" stroke-dasharray="" stroke-dashoffset="0" font-family="&quot;OpenSans-Medium&quot;, Sans Serif" font-weight="normal" text-anchor="start" style="mix-blend-mode: normal"><tspan x="0" dy="0">Settings.appx &gt; gp.cfg</tspan></text><path d="M385.57276,48.46198c0,0 -6,-6.98178 -6,-13.76761c0,-7.20325 6,-15.27443 6,-15.27443c0,0 4.99742,-7 13.56081,-7c10.48439,0 34.36768,0 52,0c9.91354,0 13.06081,6.5 13.06081,6.5c0,0 6.5,6.48734 6.5,13.27444c0,7.20226 -4,14.76761 -4,14.76761c0,0 -4.11598,7.5 -15.06081,7.5c-17.73919,0 -42.90958,0 -53,0c-8.39144,0 -13.06081,-6 -13.06081,-6z" fill="#1b1b1b" stroke-width="0"/><text transform="translate(7.78164,179.02576) scale(0.5,0.5)" font-size="40" xml:space="preserve" fill="#ffffff" fill-rule="nonzero" stroke="none" stroke-width="1" stroke-linecap="butt" stroke-linejoin="miter" stroke-miterlimit="10" stroke-dasharray="" stroke-dashoffset="0" font-family="&quot;OpenSans-Medium&quot;, Sans Serif" font-weight="normal" text-anchor="start" style="mix-blend-mode: normal"><tspan x="0" dy="0">Visual Mode</tspan></text><path d="M5.26641,148.29277v-48h174.58333v48z" fill="#ffffff" stroke-width="0"/><path d="M130.15626,119.62611v-20h50.41242v20z" fill="url(#color-3)" stroke-width="0"/><path d="M168.92179,128.62611v-29h11.07908v29z" fill="url(#color-4)" stroke-width="0"/><path d="M166.152,140.66816v-42.04205h5.53955v42.04205z" fill="url(#color-5)" stroke-width="0"/><path d="M137.82562,123.97456v-24.5035h9.36126v24.5035z" fill="url(#color-6)" stroke-width="0"/><path d="M135.48535,134.14946v-35.52336h4.68063v35.52336z" fill="url(#color-7)" stroke-width="0"/><path d="M149.76598,123.97456v-24.5035h22.38603v24.5035z" fill="url(#color-8)" stroke-width="0"/><path d="M144.16946,134.14946v-35.52336h11.19302v35.52336z" fill="url(#color-9)" stroke-width="0"/><text transform="translate(29.52761,300.94331) scale(0.25712,0.25712)" font-size="40" xml:space="preserve" fill="#ffffff" fill-rule="nonzero" stroke="none" stroke-width="1" stroke-linecap="butt" stroke-linejoin="miter" stroke-miterlimit="10" stroke-dasharray="" stroke-dashoffset="0" font-family="&quot;OpenSans-Medium&quot;, Sans Serif" font-weight="normal" text-anchor="start" style="mix-blend-mode: normal"><tspan x="0" dy="0">Use [tab] and [arrow keys] to select and control the speed property of </tspan><tspan x="0" dy="48px">Game Logic Control Applet and the Level Position Control Applet</tspan></text><g><path d="M3.35058,302.21677c0,-5.52285 4.47715,-10 10,-10c5.52285,0 10,4.47715 10,10c0,5.52285 -4.47715,10 -10,10c-5.52285,0 -10,-4.47715 -10,-10z" fill="#ffffff" stroke-width="0"/><text transform="translate(10.29886,309.48551) scale(0.5,0.5)" font-size="40" xml:space="preserve" fill="#000000" fill-rule="nonzero" stroke="none" stroke-width="1" stroke-linecap="butt" stroke-linejoin="miter" stroke-miterlimit="10" stroke-dasharray="" stroke-dashoffset="0" font-family="&quot;OpenSans-Bold&quot;, Sans Serif" font-weight="normal" text-anchor="start" style="mix-blend-mode: normal"><tspan x="0" dy="0">i</tspan></text></g><path d="M194.26642,148.29277v-48h150.58333v48z" fill="#ffffff" stroke-width="0"/><path d="M294.82294,119.62611v-20h50.41242v20z" fill="url(#color-10)" stroke-width="0"/><path d="M333.58844,128.62612v-29h11.07908v29z" fill="url(#color-11)" stroke-width="0"/><path d="M330.81867,140.66816v-42.04205h5.53955v42.04205z" fill="url(#color-12)" stroke-width="0"/><path d="M302.49231,123.97456v-24.5035h9.36126v24.5035z" fill="url(#color-13)" stroke-width="0"/><path d="M300.15201,134.14946v-35.52336h4.68063v35.52336z" fill="url(#color-14)" stroke-width="0"/><path d="M314.43264,123.97456v-24.5035h22.38603v24.5035z" fill="url(#color-15)" stroke-width="0"/><path d="M308.83613,134.14946v-35.52336h11.19302v35.52336z" fill="url(#color-16)" stroke-width="0"/></g></g></svg>