<svg version="1.1" xmlns="http://www.w3.org/2000/svg" xmlns:xlink="http://www.w3.org/1999/xlink" width="267.79693" height="266.97038" viewBox="0,0,267.79693,266.97038"><g transform="translate(-185.28398,-46.23515)"><g data-paper-data="{&quot;isPaintingLayer&quot;:true}" fill-rule="nonzero" stroke="none" stroke-width="0" stroke-linecap="butt" stroke-linejoin="miter" stroke-miterlimit="10" stroke-dasharray="" stroke-dashoffset="0" style="mix-blend-mode: normal"><path d="M299.65026,113.20695c49.4694,-28.61977 96.98402,-51.35033 138.16488,-66.9718c1.68176,0.00285 3.36369,0.00856 5.04565,0.01351c2.04361,0.49755 3.98591,1.44126 6.06059,1.80662c1.37005,0.24128 2.76381,0.37876 4.15954,0.50451c-0.75087,8.67487 -1.70412,17.33532 -2.25985,26.02463c-0.0139,0.21734 -1.02224,40.42024 -1.02058,40.69647c0.12111,20.16754 1.09991,40.26397 2.80635,60.30425c-0.12639,1.71552 -0.16085,3.46672 -0.14678,5.22943c-30.73014,22.80517 -65.92536,45.9785 -103.9524,67.97848c-45.31239,26.21479 -88.98473,47.48855 -127.65178,62.88382c-10.9238,0.89126 -22.04088,0.9144 -32.86596,1.52866c0.1173,-5.67703 -0.1899,-11.41643 -0.1899,-16.97221c0,-15 0,-30 0,-45c0,-5.15273 -0.49569,-9.71078 -1.03408,-14.8248c-0.85106,-8.08407 -0.11608,-16.32678 -1.04085,-24.39702c-0.13185,-1.15062 -0.28059,-2.29489 -0.44108,-3.43436c0.65821,-6.63954 1.36157,-13.27682 1.50795,-19.94248c0.00562,-0.25588 0.01099,-0.51179 0.01612,-0.76773c32.76033,-24.94106 71.09474,-50.5076 112.84221,-74.65996z" fill-opacity="0.25098" fill="#ff8800"/><path d="" fill-opacity="0.25098" fill="#ff8800"/><path d="M188.5,310.5v-261h263v16.25477c-0.25642,2.94102 -0.49052,5.88367 -0.67894,8.82965c-0.0139,0.21734 -1.02224,40.42024 -1.02058,40.69647c0.09188,15.29878 0.6773,30.55666 1.69952,45.78014v149.43897h-191.00378c-2.95303,-3.26668 -7.69622,-3.26668 -7.69622,-3.26668l-3.92542,0.04291c-5.46617,1.01504 -10.90736,2.17536 -16.39853,3.04512c-0.38727,0.06134 -0.775,0.12086 -1.1632,0.17865z" fill-opacity="0.15294" fill="#ff0000"/><path d="M452.02167,60.02359c-0.45459,4.84963 -0.88977,9.70071 -1.2006,14.56083c-0.0139,0.21734 -1.02224,40.42024 -1.02058,40.69647c0.07754,12.91243 0.50668,25.79571 1.25327,38.65377l-263.11408,150.77324c-0.06226,-2.85039 -0.13967,-5.68562 -0.13967,-8.47458c0,-15 0,-30 0,-45c0,-5.15273 -0.49569,-9.71078 -1.03408,-14.8248c-0.83093,-7.89283 -0.14997,-15.9369 -0.97797,-23.82403z" fill-opacity="0.15294" fill="#ff0000"/></g></g></svg>