<svg version="1.1" xmlns="http://www.w3.org/2000/svg" xmlns:xlink="http://www.w3.org/1999/xlink" width="101.44292" height="124.25389" viewBox="0,0,101.44292,124.25389"><defs><radialGradient cx="319.61551" cy="218.58186" r="45.72146" gradientUnits="userSpaceOnUse" id="color-1"><stop offset="0" stop-color="#ffffff"/><stop offset="1" stop-color="#000000"/></radialGradient></defs><g transform="translate(-268.89405,-99.32796)"><g data-paper-data="{&quot;isPaintingLayer&quot;:true}" fill-rule="nonzero" stroke-linejoin="miter" stroke-miterlimit="10" stroke-dasharray="" stroke-dashoffset="0" style="mix-blend-mode: normal"><path d="M273.89405,218.58186h91.44292" fill="none" stroke="url(#color-1)" stroke-width="10" stroke-linecap="round"/><path d="M271.51245,218.5626v-119.23463h96.20615v119.23463z" fill="#000000" stroke="none" stroke-width="NaN" stroke-linecap="butt"/><text transform="translate(275.28667,133.99124) scale(0.71361,0.71361)" font-size="40" xml:space="preserve" fill="#ffffff" fill-rule="nonzero" stroke="none" stroke-width="1" stroke-linecap="butt" stroke-linejoin="miter" stroke-miterlimit="10" stroke-dasharray="" stroke-dashoffset="0" font-family="&quot;OpenSans_Condensed-Bold&quot;, Sans Serif" font-weight="normal" text-anchor="start" style="mix-blend-mode: normal"><tspan x="0" dy="0">Settings</tspan></text><g stroke="#ffffff" stroke-width="2.5" stroke-linecap="butt"><path d="M287.62611,180.85341c0,-17.66726 14.32214,-31.98941 31.98941,-31.98941c17.66726,0 31.98941,14.32214 31.98941,31.98941c0,17.66726 -14.32214,31.98941 -31.98941,31.98941c-17.66726,0 -31.98941,-14.32214 -31.98941,-31.98941z" fill="#000000"/><path d="M301.43663,180.85341c0,-10.03992 8.13897,-18.17889 18.17889,-18.17889c10.03992,0 18.17889,8.13897 18.17889,18.17889c0,10.03992 -8.13897,18.17889 -18.17889,18.17889c-10.03992,0 -18.17889,-8.13897 -18.17889,-18.17889z" fill="#000000"/><path d="M314.73164,163.10865v-11.39572h9.76776v11.39572z" fill="#ffffff"/><path d="M314.73164,210.64508v-11.39572h9.76776v11.39572z" fill="#ffffff"/><path d="M301.54517,185.73729h-11.39572v-9.76776h11.39572z" fill="#ffffff"/><path d="M349.0816,185.73729h-11.39572v-9.76776h11.39572z" fill="#ffffff"/><path d="M303.49955,171.64427l-8.05799,-8.05799l6.90685,-6.90685l8.05799,8.05799z" fill="#ffffff"/><path d="M337.11287,205.25761l-8.05799,-8.05799l6.90685,-6.90685l8.05799,8.05799z" fill="#ffffff"/><path d="M310.17616,196.96939l-8.05799,8.05799l-6.90685,-6.90685l8.05799,-8.05799z" fill="#ffffff"/><path d="M343.78949,163.35605l-8.05799,8.05799l-6.90685,-6.90685l8.05799,-8.05799z" fill="#ffffff"/></g></g></g></svg>