<svg version="1.1" xmlns="http://www.w3.org/2000/svg" xmlns:xlink="http://www.w3.org/1999/xlink" width="489.07284" height="341.00053" viewBox="0,0,489.07284,341.00053"><defs><linearGradient x1="235.36247" y1="99.6261" x2="235.36247" y2="119.6261" gradientUnits="userSpaceOnUse" id="color-1"><stop offset="0" stop-color="#000000"/><stop offset="1" stop-color="#000000" stop-opacity="0"/></linearGradient><linearGradient x1="254.46129" y1="99.6261" x2="254.46129" y2="128.6261" gradientUnits="userSpaceOnUse" id="color-2"><stop offset="0" stop-color="#000000"/><stop offset="1" stop-color="#000000" stop-opacity="0"/></linearGradient><linearGradient x1="248.92176" y1="98.6261" x2="248.92176" y2="140.66815" gradientUnits="userSpaceOnUse" id="color-3"><stop offset="0" stop-color="#000000"/><stop offset="1" stop-color="#000000" stop-opacity="0"/></linearGradient><linearGradient x1="222.50627" y1="99.47105" x2="222.50627" y2="123.97455" gradientUnits="userSpaceOnUse" id="color-4"><stop offset="0" stop-color="#000000"/><stop offset="1" stop-color="#ffffff"/></linearGradient><linearGradient x1="217.82562" y1="98.6261" x2="217.82562" y2="134.14945" gradientUnits="userSpaceOnUse" id="color-5"><stop offset="0" stop-color="#000000"/><stop offset="1" stop-color="#000000" stop-opacity="0"/></linearGradient><linearGradient x1="240.95895" y1="99.47105" x2="240.95895" y2="123.97455" gradientUnits="userSpaceOnUse" id="color-6"><stop offset="0" stop-color="#000000"/><stop offset="1" stop-color="#000000" stop-opacity="0"/></linearGradient><linearGradient x1="229.76595" y1="98.6261" x2="229.76595" y2="134.14945" gradientUnits="userSpaceOnUse" id="color-7"><stop offset="0" stop-color="#000000"/><stop offset="1" stop-color="#000000" stop-opacity="0"/></linearGradient><linearGradient x1="400.02913" y1="99.6261" x2="400.02913" y2="119.6261" gradientUnits="userSpaceOnUse" id="color-8"><stop offset="0" stop-color="#000000"/><stop offset="1" stop-color="#000000" stop-opacity="0"/></linearGradient><linearGradient x1="419.12797" y1="99.62611" x2="419.12797" y2="128.62611" gradientUnits="userSpaceOnUse" id="color-9"><stop offset="0" stop-color="#000000"/><stop offset="1" stop-color="#000000" stop-opacity="0"/></linearGradient><linearGradient x1="413.58842" y1="98.6261" x2="413.58842" y2="140.66815" gradientUnits="userSpaceOnUse" id="color-10"><stop offset="0" stop-color="#000000"/><stop offset="1" stop-color="#000000" stop-opacity="0"/></linearGradient><linearGradient x1="387.17293" y1="99.47106" x2="387.17293" y2="123.97455" gradientUnits="userSpaceOnUse" id="color-11"><stop offset="0" stop-color="#000000"/><stop offset="1" stop-color="#ffffff"/></linearGradient><linearGradient x1="382.4923" y1="98.6261" x2="382.4923" y2="134.14945" gradientUnits="userSpaceOnUse" id="color-12"><stop offset="0" stop-color="#000000"/><stop offset="1" stop-color="#000000" stop-opacity="0"/></linearGradient><linearGradient x1="405.62563" y1="99.47106" x2="405.62563" y2="123.97455" gradientUnits="userSpaceOnUse" id="color-13"><stop offset="0" stop-color="#000000"/><stop offset="1" stop-color="#000000" stop-opacity="0"/></linearGradient><linearGradient x1="394.43261" y1="98.6261" x2="394.43261" y2="134.14945" gradientUnits="userSpaceOnUse" id="color-14"><stop offset="0" stop-color="#000000"/><stop offset="1" stop-color="#000000" stop-opacity="0"/></linearGradient></defs><g transform="translate(-75.96358,-12.41993)"><g data-paper-data="{&quot;isPaintingLayer&quot;:true}" fill-rule="nonzero" stroke="none" stroke-linecap="butt" stroke-linejoin="miter" stroke-miterlimit="10" stroke-dasharray="" stroke-dashoffset="0" style="mix-blend-mode: normal"><path d="M75.96358,329.55906v-299.11811h489.07284v299.11811z" fill="#000000" stroke-width="0"/><text transform="translate(85.77868,77.63344) scale(0.74007,0.74007)" font-size="40" xml:space="preserve" fill="#ffffff" fill-rule="nonzero" stroke="none" stroke-width="1" stroke-linecap="butt" stroke-linejoin="miter" stroke-miterlimit="10" stroke-dasharray="" stroke-dashoffset="0" font-family="&quot;OpenSans-Light&quot;, Sans Serif" font-weight="normal" text-anchor="start" style="mix-blend-mode: normal"><tspan x="0" dy="0">Gameplay</tspan></text><path d="M465.57274,48.46197c0,0 -6,-6.98178 -6,-13.76761c0,-7.20325 6,-15.27443 6,-15.27443c0,0 4.99742,-7 13.56081,-7c10.48439,0 34.36768,0 52,0c9.91354,0 13.06081,6.5 13.06081,6.5c0,0 6.5,6.48734 6.5,13.27444c0,7.20226 -4,14.76761 -4,14.76761c0,0 -4.11598,7.5 -15.06081,7.5c-17.73919,0 -42.90958,0 -53,0c-8.39144,0 -13.06081,-6 -13.06081,-6z" fill="#1b1b1b" stroke-width="0"/><path d="M455.43625,353.42046v-57.05706h108.32655v57.05706z" fill="#000000" stroke-width="0"/><text transform="translate(87.78163,179.02575) scale(0.5,0.5)" font-size="40" xml:space="preserve" fill="#ffffff" fill-rule="nonzero" stroke="none" stroke-width="1" stroke-linecap="butt" stroke-linejoin="miter" stroke-miterlimit="10" stroke-dasharray="" stroke-dashoffset="0" font-family="&quot;OpenSans-Medium&quot;, Sans Serif" font-weight="normal" text-anchor="start" style="mix-blend-mode: normal"><tspan x="0" dy="0">Visual Mode</tspan></text><path d="M85.2664,148.29276v-48h174.58333v48z" fill="#ffffff" stroke-width="0"/><path d="M210.15626,119.6261v-20h50.41242v20z" fill="url(#color-1)" stroke-width="0"/><path d="M248.92177,128.6261v-29h11.07908v29z" fill="url(#color-2)" stroke-width="0"/><path d="M246.15199,140.66815v-42.04205h5.53955v42.04205z" fill="url(#color-3)" stroke-width="0"/><path d="M217.82562,123.97455v-24.5035h9.36126v24.5035z" fill="url(#color-4)" stroke-width="0"/><path d="M215.48533,134.14945v-35.52336h4.68063v35.52336z" fill="url(#color-5)" stroke-width="0"/><path d="M229.76596,123.97455v-24.5035h22.38603v24.5035z" fill="url(#color-6)" stroke-width="0"/><path d="M224.16945,134.14945v-35.52336h11.19302v35.52336z" fill="url(#color-7)" stroke-width="0"/><text transform="translate(109.52761,300.9433) scale(0.25712,0.25712)" font-size="40" xml:space="preserve" fill="#ffffff" fill-rule="nonzero" stroke="none" stroke-width="1" stroke-linecap="butt" stroke-linejoin="miter" stroke-miterlimit="10" stroke-dasharray="" stroke-dashoffset="0" font-family="&quot;OpenSans-Medium&quot;, Sans Serif" font-weight="normal" text-anchor="start" style="mix-blend-mode: normal"><tspan x="0" dy="0">Use [tab] and [arrow keys] to select and control the speed property of </tspan><tspan x="0" dy="48px">Game Logic Control Applet and the Level Position Control Applet</tspan></text><g><path d="M83.35058,302.21676c0,-5.52285 4.47715,-10 10,-10c5.52285,0 10,4.47715 10,10c0,5.52285 -4.47715,10 -10,10c-5.52285,0 -10,-4.47715 -10,-10z" fill="#ffffff" stroke-width="0"/><text transform="translate(90.29885,309.48551) scale(0.5,0.5)" font-size="40" xml:space="preserve" fill="#000000" fill-rule="nonzero" stroke="none" stroke-width="1" stroke-linecap="butt" stroke-linejoin="miter" stroke-miterlimit="10" stroke-dasharray="" stroke-dashoffset="0" font-family="&quot;OpenSans-Bold&quot;, Sans Serif" font-weight="normal" text-anchor="start" style="mix-blend-mode: normal"><tspan x="0" dy="0">i</tspan></text></g><path d="M274.2664,148.29276v-48h150.58333v48z" fill="#ffffff" stroke-width="0"/><path d="M374.82292,119.6261v-20h50.41242v20z" fill="url(#color-8)" stroke-width="0"/><path d="M413.58843,128.62611v-29h11.07908v29z" fill="url(#color-9)" stroke-width="0"/><path d="M410.81865,140.66815v-42.04205h5.53955v42.04205z" fill="url(#color-10)" stroke-width="0"/><path d="M382.4923,123.97455v-24.5035h9.36126v24.5035z" fill="url(#color-11)" stroke-width="0"/><path d="M380.15199,134.14945v-35.52336h4.68063v35.52336z" fill="url(#color-12)" stroke-width="0"/><path d="M394.43262,123.97455v-24.5035h22.38603v24.5035z" fill="url(#color-13)" stroke-width="0"/><path d="M388.83611,134.14945v-35.52336h11.19302v35.52336z" fill="url(#color-14)" stroke-width="0"/></g></g></svg>