<svg version="1.1" xmlns="http://www.w3.org/2000/svg" xmlns:xlink="http://www.w3.org/1999/xlink" width="489.07284" height="341.00053" viewBox="0,0,489.07284,341.00053"><g transform="translate(-75.96358,-12.41993)"><g data-paper-data="{&quot;isPaintingLayer&quot;:true}" fill-rule="nonzero" stroke="none" stroke-linecap="butt" stroke-linejoin="miter" stroke-miterlimit="10" stroke-dasharray="" stroke-dashoffset="0" style="mix-blend-mode: normal"><path d="M75.96358,329.55906v-299.11811h489.07284v299.11811z" fill="#000000" stroke-width="0"/><text transform="translate(85.77865,77.63344) scale(0.74007,0.74007)" font-size="40" xml:space="preserve" fill="#ffffff" fill-rule="nonzero" stroke="none" stroke-width="1" stroke-linecap="butt" stroke-linejoin="miter" stroke-miterlimit="10" stroke-dasharray="" stroke-dashoffset="0" font-family="&quot;OpenSans-Light&quot;, Sans Serif" font-weight="normal" text-anchor="start" style="mix-blend-mode: normal"><tspan x="0" dy="0">Sound and gamepad</tspan></text><path d="M84.97503,161.02873v-48h137v48z" fill="#ffffff" stroke-width="0"/><text transform="translate(83.83221,260.02873) scale(0.5,0.5)" font-size="40" xml:space="preserve" fill="#ffffff" fill-rule="nonzero" stroke="none" stroke-width="1" stroke-linecap="butt" stroke-linejoin="miter" stroke-miterlimit="10" stroke-dasharray="" stroke-dashoffset="0" font-family="&quot;OpenSans-Light&quot;, Sans Serif" font-weight="normal" text-anchor="start" style="mix-blend-mode: normal"><tspan x="0" dy="0">Gamepad size</tspan></text><path d="M465.57271,48.46197c0,0 -6,-6.98178 -6,-13.76761c0,-7.20325 6,-15.27443 6,-15.27443c0,0 4.99742,-7 13.56081,-7c10.48439,0 34.36768,0 52,0c9.91354,0 13.06081,6.5 13.06081,6.5c0,0 6.5,6.48734 6.5,13.27444c0,7.20226 -4,14.76761 -4,14.76761c0,0 -4.11598,7.5 -15.06081,7.5c-17.73919,0 -42.90958,0 -53,0c-8.39144,0 -13.06081,-6 -13.06081,-6z" fill="#1b1b1b" stroke-width="0"/><path d="M455.43624,353.42046v-57.05706h108.32655v57.05706z" fill="#000000" stroke-width="0"/><text transform="translate(109.52758,300.9433) scale(0.25712,0.25712)" font-size="40" xml:space="preserve" fill="#ffffff" fill-rule="nonzero" stroke="none" stroke-width="1" stroke-linecap="butt" stroke-linejoin="miter" stroke-miterlimit="10" stroke-dasharray="" stroke-dashoffset="0" font-family="&quot;OpenSans-Medium&quot;, Sans Serif" font-weight="normal" text-anchor="start" style="mix-blend-mode: normal"><tspan x="0" dy="0">Use [tab] and [arrow keys] to select and control the </tspan><tspan x="0" dy="48px">Volume control applet and Gamepad Opacity Control Applet</tspan></text><g><path d="M83.35058,302.21676c0,-5.52285 4.47715,-10 10,-10c5.52285,0 10,4.47715 10,10c0,5.52285 -4.47715,10 -10,10c-5.52285,0 -10,-4.47715 -10,-10z" fill="#ffffff" stroke-width="0"/><text transform="translate(90.29882,309.48551) scale(0.5,0.5)" font-size="40" xml:space="preserve" fill="#000000" fill-rule="nonzero" stroke="none" stroke-width="1" stroke-linecap="butt" stroke-linejoin="miter" stroke-miterlimit="10" stroke-dasharray="" stroke-dashoffset="0" font-family="&quot;OpenSans-Bold&quot;, Sans Serif" font-weight="normal" text-anchor="start" style="mix-blend-mode: normal"><tspan x="0" dy="0">i</tspan></text></g><path d="M224.97503,161.02873v-48h167v48z" fill="#ffffff" stroke-width="0"/></g></g></svg>