<svg version="1.1" xmlns="http://www.w3.org/2000/svg" xmlns:xlink="http://www.w3.org/1999/xlink" width="152.24082" height="82.1637" viewBox="0,0,152.24082,82.1637"><defs><radialGradient cx="373.49998" cy="218.58185" r="71.12041" gradientUnits="userSpaceOnUse" id="color-1"><stop offset="0" stop-color="#ffffff"/><stop offset="1" stop-color="#000000"/></radialGradient><linearGradient x1="310.61495" y1="180" x2="354.7343" y2="180" gradientUnits="userSpaceOnUse" id="color-2"><stop offset="0" stop-color="#00ffff"/><stop offset="1" stop-color="#ff0000"/></linearGradient><linearGradient x1="332.67463" y1="155.41654" x2="332.67463" y2="204.58344" gradientUnits="userSpaceOnUse" id="color-3"><stop offset="0" stop-color="#ffffff"/><stop offset="1" stop-color="#1a1a1a"/></linearGradient><linearGradient x1="319.12102" y1="180.00001" x2="346.22825" y2="180.00001" gradientUnits="userSpaceOnUse" id="color-4"><stop offset="0" stop-color="#00ffff"/><stop offset="1" stop-color="#ff00de"/></linearGradient><linearGradient x1="332.67463" y1="164.89577" x2="332.67463" y2="195.10425" gradientUnits="userSpaceOnUse" id="color-5"><stop offset="0" stop-color="#ffffff"/><stop offset="1" stop-color="#1a1a1a"/></linearGradient></defs><g transform="translate(-297.37957,-141.41815)"><g data-paper-data="{&quot;isPaintingLayer&quot;:true}" fill-rule="nonzero" stroke-linejoin="miter" stroke-miterlimit="10" stroke-dasharray="" stroke-dashoffset="0" style="mix-blend-mode: normal"><path d="M302.37957,218.58185h142.24082" fill="none" stroke="url(#color-1)" stroke-width="10" stroke-linecap="round"/><path d="M298.67495,218.56259v-77.14444h149.6501v77.14444z" fill="#000000" stroke="none" stroke-width="NaN" stroke-linecap="butt"/><text transform="translate(358.73772,186.34896) scale(0.52988,0.52988)" font-size="40" xml:space="preserve" fill="#ffffff" fill-rule="nonzero" stroke="none" stroke-width="1" stroke-linecap="butt" stroke-linejoin="miter" stroke-miterlimit="10" stroke-dasharray="" stroke-dashoffset="0" font-family="&quot;OpenSans_Condensed-Bold&quot;, Sans Serif" font-weight="normal" text-anchor="start" style="mix-blend-mode: normal"><tspan x="0" dy="0">Customize</tspan></text><path d="M310.61495,199.5359v-44.11934c0,0 14.55092,4.4867 21.87273,4.4867c7.38412,0 22.24662,-4.4867 22.24662,-4.4867v44.11934c0,0 -14.83215,5.04755 -22.24662,5.04755c-7.28986,0 -21.87273,-5.04755 -21.87273,-5.04755z" fill="url(#color-2)" stroke="url(#color-3)" stroke-width="1.5" stroke-linecap="butt"/><path d="M319.12102,192.003v-27.10723c0,0 8.94019,2.75666 13.43876,2.75666c4.53685,0 13.66848,-2.75666 13.66848,-2.75666v27.10723c0,0 -9.11297,3.10125 -13.66848,3.10125c-4.47894,0 -13.43876,-3.10125 -13.43876,-3.10125z" fill="url(#color-4)" stroke="url(#color-5)" stroke-width="1.5" stroke-linecap="butt"/></g></g></svg>