<svg version="1.1" xmlns="http://www.w3.org/2000/svg" xmlns:xlink="http://www.w3.org/1999/xlink" width="96.69219" height="89.70683" viewBox="0,0,96.69219,89.70683"><defs><radialGradient cx="320.00001" cy="180.00001" r="48.3461" gradientUnits="userSpaceOnUse" id="color-1"><stop offset="0" stop-color="#313131"/><stop offset="1" stop-color="#313131" stop-opacity="0"/></radialGradient></defs><g transform="translate(-271.65391,-135.14658)"><g data-paper-data="{&quot;isPaintingLayer&quot;:true}" fill-rule="nonzero" stroke-linecap="butt" stroke-linejoin="miter" stroke-miterlimit="10" stroke-dasharray="" stroke-dashoffset="0" style="mix-blend-mode: normal"><path d="M271.65391,224.85342v-89.70683h96.69219v89.70683z" fill="url(#color-1)" stroke="none" stroke-width="0"/><g stroke="none" stroke-width="0"><path d="M289.17411,209.00683l-11.41273,-26.26282l73.06451,-31.75079l11.41273,26.26282z" fill-opacity="0.37255" fill="#0090ff"/><path d="M282.87496,190.14338l-2.63854,-6.07177l5.51979,-2.39867l2.63854,6.07177z" fill-opacity="0.37255" fill="#ffffff"/><path d="M289.13518,187.42293l-2.63854,-6.07177l5.51979,-2.39867l2.63854,6.07177z" fill-opacity="0.37255" fill="#ffffff"/><path d="M295.39094,184.70445l-2.63854,-6.07177l5.51979,-2.39867l2.63854,6.07177z" fill-opacity="0.37255" fill="#ffffff"/><path d="M301.65116,181.98401l-2.63854,-6.07177l5.51979,-2.39867l2.63854,6.07177z" fill-opacity="0.37255" fill="#ffffff"/><path d="M307.71846,179.34743l-2.63854,-6.07177l5.51979,-2.39867l2.63854,6.07177z" fill-opacity="0.37255" fill="#ffffff"/><path d="M313.97868,176.62699l-2.63854,-6.07177l5.51979,-2.39867l2.63854,6.07177z" fill-opacity="0.37255" fill="#ffffff"/><path d="M320.23443,173.90851l-2.63854,-6.07177l5.51979,-2.39867l2.63854,6.07177z" fill-opacity="0.37255" fill="#ffffff"/><path d="M326.49466,171.18807l-2.63854,-6.07177l5.51979,-2.39867l2.63854,6.07177z" fill-opacity="0.37255" fill="#ffffff"/><path d="M332.74595,168.47151l-2.63854,-6.07177l5.51979,-2.39867l2.63854,6.07177z" fill-opacity="0.37255" fill="#ffffff"/><path d="M339.00618,165.75109l-2.63854,-6.07177l5.51979,-2.39867l2.63854,6.07177z" fill-opacity="0.37255" fill="#ffffff"/><path d="M345.26194,163.03259l-2.63854,-6.07177l5.51979,-2.39867l2.63854,6.07177z" fill-opacity="0.37255" fill="#ffffff"/><path d="M288.27932,196.87249l-2.63854,-6.07177l5.51979,-2.39867l2.63854,6.07177z" fill-opacity="0.37255" fill="#ffffff"/><path d="M294.53956,194.15205l-2.63854,-6.07177l5.51979,-2.39867l2.63854,6.07177z" fill-opacity="0.37255" fill="#ffffff"/><path d="M300.79532,191.43357l-2.63854,-6.07177l5.51979,-2.39867l2.63854,6.07177z" fill-opacity="0.37255" fill="#ffffff"/><path d="M307.05553,188.71313l-2.63854,-6.07177l5.51979,-2.39867l2.63854,6.07177z" fill-opacity="0.37255" fill="#ffffff"/><path d="M313.12284,186.07655l-2.63854,-6.07177l5.51979,-2.39867l2.63854,6.07177z" fill-opacity="0.37255" fill="#ffffff"/><path d="M319.38305,183.3561l-2.63854,-6.07177l5.51979,-2.39867l2.63854,6.07177z" fill-opacity="0.37255" fill="#ffffff"/><path d="M325.63882,180.63762l-2.63854,-6.07177l5.51979,-2.39867l2.63854,6.07177z" fill-opacity="0.37255" fill="#ffffff"/><path d="M331.89904,177.91719l-2.63854,-6.07177l5.51979,-2.39867l2.63854,6.07177z" fill-opacity="0.37255" fill="#ffffff"/><path d="M338.15033,175.20062l-2.63854,-6.07177l5.51979,-2.39867l2.63854,6.07177z" fill-opacity="0.37255" fill="#ffffff"/><path d="M344.41056,172.4802l-2.63854,-6.07177l5.51979,-2.39867l2.63854,6.07177z" fill-opacity="0.37255" fill="#ffffff"/><path d="M350.66631,169.7617l-2.63854,-6.07177l5.51979,-2.39867l2.63854,6.07177z" fill-opacity="0.37255" fill="#ffffff"/><path d="M289.8839,205.58626l-2.63854,-6.07177l5.51979,-2.39867l2.63854,6.07177z" fill-opacity="0.37255" fill="#ffffff"/><path d="M296.14412,202.86582l-2.63854,-6.07177l5.51979,-2.39867l2.63854,6.07177z" fill-opacity="0.37255" fill="#ffffff"/><path d="M302.39989,200.14734l-2.63854,-6.07177l5.51979,-2.39867l2.63854,6.07177z" fill-opacity="0.37255" fill="#ffffff"/><path d="M308.66008,197.42691l-2.63854,-6.07177l5.51979,-2.39867l2.63854,6.07177z" fill-opacity="0.37255" fill="#ffffff"/><path d="M314.7274,194.79031l-2.63854,-6.07177l5.51979,-2.39867l2.63854,6.07177z" fill-opacity="0.37255" fill="#ffffff"/><path d="M320.98762,192.06988l-2.63854,-6.07177l5.51979,-2.39867l2.63854,6.07177z" fill-opacity="0.37255" fill="#ffffff"/><path d="M327.24338,189.35138l-2.63854,-6.07177l5.51979,-2.39867l2.63854,6.07177z" fill-opacity="0.37255" fill="#ffffff"/><path d="M333.5036,186.63096l-2.63854,-6.07177l5.51979,-2.39867l2.63854,6.07177z" fill-opacity="0.37255" fill="#ffffff"/><path d="M339.7549,183.9144l-2.63854,-6.07177l5.51979,-2.39867l2.63854,6.07177z" fill-opacity="0.37255" fill="#ffffff"/><path d="M346.01512,181.19398l-2.63854,-6.07177l5.51979,-2.39867l2.63854,6.07177z" fill-opacity="0.37255" fill="#ffffff"/><path d="M352.27088,178.47548l-2.63854,-6.07177l5.51979,-2.39867l2.63854,6.07177z" fill-opacity="0.37255" fill="#ffffff"/></g><text transform="translate(280.02994,153.17216) scale(0.34394,0.34394)" font-size="40" xml:space="preserve" fill="#ffffff" fill-rule="nonzero" stroke="#ffffff" stroke-width="2" stroke-linecap="butt" stroke-linejoin="miter" stroke-miterlimit="10" stroke-dasharray="" stroke-dashoffset="0" font-family="&quot;OpenSans-Medium&quot;, Sans Serif" font-weight="normal" text-anchor="start" style="mix-blend-mode: normal"><tspan x="0" dy="0">Keyboard</tspan></text></g></g></svg>