<svg version="1.1" xmlns="http://www.w3.org/2000/svg" xmlns:xlink="http://www.w3.org/1999/xlink" width="568.09534" height="223.52167" viewBox="0,0,568.09534,223.52167"><g transform="translate(-35.95233,-68.23916)"><g data-paper-data="{&quot;isPaintingLayer&quot;:true}" fill-rule="nonzero" stroke="none" stroke-width="0" stroke-linecap="butt" stroke-linejoin="miter" stroke-miterlimit="10" stroke-dasharray="" stroke-dashoffset="0" style="mix-blend-mode: normal"><path d="M603.34648,85.1554c10.92372,32.63442 -107.07939,101.55322 -263.56733,153.93444c-156.48793,52.38123 -292.2019,68.38917 -303.12562,35.75476c-10.92372,-32.63442 107.07939,-101.55322 263.56733,-153.93444c156.48794,-52.38122 292.2019,-68.38917 303.12563,-35.75476z" fill-opacity="0.16863" fill="#ff0000"/><path d="M576.29329,94.21092c10.92372,32.63442 -95.92348,97.81899 -238.64992,145.59383c-142.72643,47.77484 -267.28449,60.04858 -278.20822,27.41416c-10.92372,-32.63442 95.92349,-97.819 238.64992,-145.59384c142.72644,-47.77484 267.28449,-60.04857 278.20822,-27.41415z" fill-opacity="0.16863" fill="#ff7b00"/><path d="M503.67686,118.51782c10.92373,32.63442 -62.45578,86.61635 -163.8977,120.57202c-101.44192,33.95567 -192.53229,35.02676 -203.45601,2.39234c-10.92373,-32.63442 62.45578,-86.61635 163.89771,-120.57202c101.44193,-33.95567 192.53228,-35.02676 203.45601,-2.39234z" fill-opacity="0.16863" fill="#b1ff00"/><path d="M386.92103,157.59952c10.92372,32.63442 -10.18241,69.11888 -47.14187,81.49033c-36.95946,12.37144 -75.77645,-4.05494 -86.70017,-36.68936c-10.92372,-32.63442 10.18241,-69.11888 47.14187,-81.49032c36.95946,-12.37144 75.77645,4.05494 86.70018,36.68936z" fill-opacity="0.16863" fill="#10ff00"/><g><path d="M575.61257,230.21738c-13.93463,12.2196 -139.67252,-0.35755 -280.84344,-28.09184c-141.17092,-27.73429 -244.31632,-60.12331 -230.38169,-72.34291c13.93463,-12.2196 139.67252,0.35755 280.84344,28.09184c141.17092,27.73429 244.31632,60.12331 230.38169,72.34291z" fill-opacity="0.16863" fill="#ff0000"/><path d="M551.20735,225.42275c-13.93463,12.2196 -129.60855,1.61961 -258.36495,-23.67574c-128.75639,-25.29534 -221.83783,-55.70721 -207.90319,-67.92681c13.93463,-12.2196 129.60856,-1.61961 258.36495,23.67574c128.7564,25.29534 221.83783,55.70721 207.90319,67.92681z" fill-opacity="0.16863" fill="#ff7b00"/><path d="M485.69859,212.55297c-13.93463,12.2196 -99.41666,7.55107 -190.92947,-10.42743c-91.51281,-17.97851 -154.40235,-42.45891 -140.46772,-54.67851c13.93463,-12.2196 99.41667,-7.55108 190.92948,10.42743c91.51281,17.97851 154.40235,42.45891 140.46772,54.67851z" fill-opacity="0.16863" fill="#b1ff00"/></g></g></g></svg>