<svg version="1.1" xmlns="http://www.w3.org/2000/svg" xmlns:xlink="http://www.w3.org/1999/xlink" width="58.75994" height="32.0665" viewBox="0,0,58.75994,32.0665"><g transform="translate(22.87997,-328.95174)"><g data-paper-data="{&quot;isPaintingLayer&quot;:true}" fill-rule="nonzero" stroke="none" stroke-linecap="butt" stroke-linejoin="miter" stroke-miterlimit="10" stroke-dasharray="" stroke-dashoffset="0" style="mix-blend-mode: normal"><path d="M-22.87997,360.89813v-7.95787h7.33201v7.95787z" fill="#000000" stroke-width="NaN"/><path d="M-15.53937,361.01824v-7.95787h7.33201v7.95787z" fill="#ffffff" stroke-width="NaN"/><path d="M-8.21743,360.95843v-7.95787h7.33201v7.95787z" fill="#000000" stroke-width="NaN"/><path d="M-0.87684,361.00628v-7.95787h7.33201v7.95787z" fill="#ffffff" stroke-width="NaN"/><path d="M-22.87997,352.95013v-7.95787h7.33201v7.95787z" fill="#ffffff" stroke-width="NaN"/><path d="M-15.53937,353.07023v-7.95787h7.332v7.95787z" fill="#000000" stroke-width="NaN"/><path d="M-8.21743,353.01043v-7.95787h7.33201v7.95786z" fill="#ffffff" stroke-width="NaN"/><path d="M-0.87684,353.05827v-7.95787h7.33201v7.95786z" fill="#000000" stroke-width="NaN"/><path d="M-22.8134,344.85762v-7.95787h7.33201v7.95786z" fill="#000000" stroke-width="NaN"/><path d="M-15.4728,344.97772v-7.95787h7.332v7.95787z" fill="#ffffff" stroke-width="NaN"/><path d="M-8.15086,344.91791v-7.95786h7.33201v7.95786z" fill="#000000" stroke-width="NaN"/><path d="M-0.81027,344.96576v-7.95786h7.33201v7.95787z" fill="#ffffff" stroke-width="NaN"/><path d="M-22.8134,336.90961v-7.95787h7.332v7.95787z" fill="#ffffff" stroke-width="NaN"/><path d="M-15.4728,337.02972v-7.95786h7.33201v7.95786z" fill="#000000" stroke-width="NaN"/><path d="M-8.15086,336.96991c0,0 0,-0.57324 0,-1.09479c0,-1.30584 0,-6.86308 0,-6.86308h7.332v7.95787z" fill="#ffffff" stroke-width="NaN"/><path d="M-0.81027,337.01776v-7.95786h7.33201v7.95786z" fill="#000000" stroke-width="NaN"/><path d="M6.47827,360.89814v-7.95787h7.33201v7.95787z" fill="#000000" stroke-width="NaN"/><path d="M13.81887,361.01824v-7.95787h7.33201v7.95787z" fill="#ffffff" stroke-width="NaN"/><path d="M21.14081,360.95843v-7.95786h7.332v7.95787z" fill="#000000" stroke-width="NaN"/><path d="M28.4814,361.00628v-7.95786h7.33201v7.95786z" fill="#ffffff" stroke-width="NaN"/><path d="M6.47827,352.95013v-7.95787h7.332v7.95787z" fill="#ffffff" stroke-width="NaN"/><path d="M13.81887,353.07023v-7.95786h7.33201v7.95786z" fill="#000000" stroke-width="NaN"/><path d="M21.14081,353.01043v-7.95787h7.332v7.95787z" fill="#ffffff" stroke-width="NaN"/><path d="M28.4814,353.05828v-7.95787h7.33201v7.95787z" fill="#000000" stroke-width="NaN"/><path d="M6.54484,344.85762v-7.95786h7.332v7.95786z" fill="#000000" stroke-width="NaN"/><path d="M13.88544,344.97772v-7.95786h7.33201v7.95787z" fill="#ffffff" stroke-width="NaN"/><path d="M21.20737,344.91791v-7.95787h7.33201v7.95787z" fill="#000000" stroke-width="NaN"/><path d="M28.54797,344.96577v-7.95787h7.332v7.95787z" fill="#ffffff" stroke-width="NaN"/><path d="M6.54484,336.90962v-7.95787h7.332v7.95787z" fill="#ffffff" stroke-width="NaN"/><path d="M13.88544,337.02972v-7.95787h7.33201v7.95787z" fill="#000000" stroke-width="NaN"/><path d="M21.20737,336.96991v-7.95787h7.33201v7.95787z" fill="#ffffff" stroke-width="NaN"/><path d="M28.54797,337.01776v-7.95787h7.332v7.95787z" fill="#000000" stroke-width="NaN"/></g></g></svg>