<svg version="1.1" xmlns="http://www.w3.org/2000/svg" xmlns:xlink="http://www.w3.org/1999/xlink" width="773.10805" height="515.57264" viewBox="0,0,773.10805,515.57264"><g transform="translate(12.08411,100.41845)"><g data-paper-data="{&quot;isPaintingLayer&quot;:true}" fill-rule="nonzero" stroke="none" stroke-linecap="butt" stroke-linejoin="miter" stroke-miterlimit="10" stroke-dasharray="" stroke-dashoffset="0" style="mix-blend-mode: normal"><path d="M54.56953,368.36169v-379h641.50751v379z" fill="#444444" stroke-width="NaN"/><path d="M36.34209,373.60764l-48.4262,-85.76688l687.6398,-388.25921l48.4262,85.76688z" fill="#565656" stroke-width="0"/><path d="M73.38414,415.15419l-48.4262,-85.76688l687.6398,-388.25921l48.4262,85.76688z" fill="#a7a7a7" stroke-width="0"/><path d="M71.34616,380.65569l-44.88712,-79.4989l637.38589,-359.88455l44.88712,79.4989z" fill="#000000" stroke-width="0"/><path d="M166,120.5v-39h40v39z" fill="#ffffff" stroke-width="0"/><path d="M215,109.5v-12h6v12z" fill="#ffffff" stroke-width="0"/><path d="M183,168.5v-35h70v35z" fill="#ffffff" stroke-width="0"/><path d="M273,151.5v-10h6v10z" fill="#ffffff" stroke-width="0"/><path d="M252,125.5v-23h17v23z" fill="#ffffff" stroke-width="0"/><path d="M300,102.5v-6h2v6z" fill="#ffffff" stroke-width="0"/><path d="M142,235.5v-41h29v41z" fill="#ffffff" stroke-width="0"/><path d="M184,213.5v-23h16v23z" fill="#ffffff" stroke-width="0"/><path d="M401,357.5v-52h63v52z" fill="#ffffff" stroke-width="0"/><path d="M483,323.5v-47h17v47z" fill="#ffffff" stroke-width="0"/><path d="M492,268.5v-32h44v32z" fill="#ffffff" stroke-width="0"/><path d="M531,218.5v-47h30v47z" fill="#ffffff" stroke-width="0"/><path d="M568,270.5v-6h3v6z" fill="#ffffff" stroke-width="0"/><path d="M509,285.5v-9h8v9z" fill="#ffffff" stroke-width="0"/><path d="M447,293.5v-12h22v12z" fill="#ffffff" stroke-width="0"/><path d="M483,349.5v-10h25v10z" fill="#ffffff" stroke-width="0"/><path d="M543,238.5v-6h10v6z" fill="#ffffff" stroke-width="0"/><path d="M569,184.5v-13h13v13z" fill="#ffffff" stroke-width="0"/><path d="M-8.82625,398.75225v-441.44144h70.57057v441.44144z" fill="#000000" stroke-width="0"/><path d="M688.6966,381.18459v-441.44144h70.57057v441.44144z" fill="#000000" stroke-width="0"/></g></g></svg>