<svg version="1.1" xmlns="http://www.w3.org/2000/svg" xmlns:xlink="http://www.w3.org/1999/xlink" width="101.44292" height="82.1637" viewBox="0,0,101.44292,82.1637"><defs><radialGradient cx="186.11551" cy="218.58186" r="45.72146" gradientUnits="userSpaceOnUse" id="color-1"><stop offset="0" stop-color="#000000"/><stop offset="1" stop-color="#ffffff"/></radialGradient></defs><g transform="translate(-135.39405,-141.41816)"><g data-paper-data="{&quot;isPaintingLayer&quot;:true}" fill-rule="nonzero" stroke-linejoin="miter" stroke-miterlimit="10" stroke-dasharray="" stroke-dashoffset="0" style="mix-blend-mode: normal"><path d="M140.39405,218.58186h91.44292" fill="none" stroke="url(#color-1)" stroke-width="10" stroke-linecap="round"/><path d="M138.01245,218.5626v-77.14444h96.20615v77.14444z" fill="#ffffff" stroke="none" stroke-width="NaN" stroke-linecap="butt"/><text transform="translate(152.43526,165.1633) scale(0.54219,0.54219)" font-size="40" xml:space="preserve" fill="#000000" fill-rule="nonzero" stroke="none" stroke-width="1" stroke-linecap="butt" stroke-linejoin="miter" stroke-miterlimit="10" stroke-dasharray="" stroke-dashoffset="0" font-family="&quot;OpenSans_Condensed-Bold&quot;, Sans Serif" font-weight="normal" text-anchor="start" style="mix-blend-mode: normal"><tspan x="0" dy="0">Settings</tspan></text><g stroke="#ffffff" stroke-width="2.5" stroke-linecap="butt"><path d="M166.46552,191.93261c0,-10.85239 8.7976,-19.65 19.65,-19.65c10.85239,0 19.65,8.7976 19.65,19.65c0,10.85239 -8.7976,19.65 -19.65,19.65c-10.85239,0 -19.65,-8.7976 -19.65,-19.65z" fill="#000000"/><path d="M174.94885,191.93261c0,-6.16718 4.99949,-11.16667 11.16667,-11.16667c6.16718,0 11.16667,4.99949 11.16667,11.16667c0,6.16718 -4.99949,11.16667 -11.16667,11.16667c-6.16718,0 -11.16667,-4.99949 -11.16667,-11.16667z" fill="#000000"/><path d="M183.11552,181.03261v-7h6v7z" fill="#ffffff"/><path d="M183.11552,210.23261v-7h6v7z" fill="#ffffff"/><path d="M175.01552,194.93261h-7v-6h7z" fill="#ffffff"/><path d="M204.21552,194.93261h-7v-6h7z" fill="#ffffff"/><path d="M176.21603,186.27575l-4.94975,-4.94975l4.24264,-4.24264l4.94975,4.94975z" fill="#ffffff"/><path d="M196.86354,206.92327l-4.94975,-4.94975l4.24264,-4.24264l4.94975,4.94975z" fill="#ffffff"/><path d="M180.31724,201.8321l-4.94975,4.94975l-4.24264,-4.24264l4.94975,-4.94975z" fill="#ffffff"/><path d="M200.96476,181.18458l-4.94975,4.94975l-4.24264,-4.24264l4.94975,-4.94975z" fill="#ffffff"/></g><path d="M223.19304,210.94165v-16.77278h8.22816v16.77278z" fill="#000000" stroke="none" stroke-width="0" stroke-linecap="butt"/><path d="M223.19304,192.27007v-16.13985h8.54463v16.13985z" fill="#000000" stroke="none" stroke-width="0" stroke-linecap="butt"/></g></g></svg>